<?xml version="1.0" standalone="no"?>
<!DOCTYPE svg PUBLIC "-//W3C//DTD SVG 20010904//EN"
 "http://www.w3.org/TR/2001/REC-SVG-20010904/DTD/svg10.dtd">
<svg version="1.0" xmlns="http://www.w3.org/2000/svg"
 width="1600.000000pt" height="1200.000000pt" viewBox="0 0 1600.000000 1200.000000"
 preserveAspectRatio="xMidYMid meet">

<g transform="translate(0.000000,1200.000000) scale(0.100000,-0.100000)"
fill="#000000" stroke="none">
<path d="M7550 10444 c-456 -39 -759 -111 -1116 -264 -936 -401 -1667 -1255
-1894 -2215 -56 -235 -65 -318 -65 -600 0 -179 4 -281 13 -327 l14 -66 -76
-77 c-105 -105 -230 -264 -271 -344 -51 -103 -68 -170 -63 -264 6 -141 76
-249 197 -305 48 -23 69 -27 153 -27 l97 0 7 -50 c18 -133 71 -252 150 -333
l55 -57 -12 -70 c-28 -166 39 -485 151 -720 44 -93 123 -186 196 -232 29 -18
43 -33 40 -43 -28 -83 -77 -276 -87 -341 -16 -114 -7 -268 21 -341 76 -196
285 -252 522 -139 34 17 63 29 63 28 1 -1 14 -32 29 -69 79 -189 231 -394 399
-536 315 -267 716 -427 1247 -499 211 -28 734 -25 965 6 672 90 1293 304 1839
635 771 467 1258 1056 1398 1692 32 146 32 445 0 593 -13 57 -21 106 -18 108
2 3 49 16 103 30 110 28 145 46 197 103 51 57 69 104 69 185 1 219 -194 493
-434 610 l-56 27 10 57 c19 117 -14 354 -74 536 -61 183 -164 358 -255 434
l-38 30 -1 103 c-2 97 -5 115 -68 311 -36 114 -75 224 -87 244 -11 19 -20 36
-18 37 2 2 25 15 52 31 66 37 132 99 163 153 49 83 42 226 -17 350 -91 193
-355 335 -740 397 -30 5 -46 20 -110 101 -87 111 -297 320 -420 417 -464 370
-1036 605 -1660 682 -121 15 -479 27 -570 19z m375 -124 c198 -14 329 -33 505
-76 216 -51 293 -76 278 -86 -9 -6 -5 -7 10 -3 28 8 64 -3 56 -17 -4 -7 -2 -8
5 -4 16 11 113 -23 105 -36 -5 -7 -2 -8 5 -3 17 10 103 -24 95 -37 -5 -7 -2
-8 5 -3 15 9 93 -24 85 -36 -3 -5 1 -6 9 -3 19 7 160 -64 152 -76 -4 -6 1 -7
11 -3 12 4 15 3 10 -5 -5 -8 -1 -10 10 -5 12 4 15 3 10 -5 -5 -8 -1 -10 10 -5
11 4 15 2 11 -4 -4 -6 1 -10 11 -9 9 0 16 -5 14 -12 -1 -8 2 -11 7 -7 14 8 73
-24 66 -35 -3 -6 0 -7 8 -4 8 3 18 0 23 -7 5 -8 3 -10 -6 -4 -9 5 -11 4 -6 -4
4 -6 11 -9 16 -6 13 8 52 -14 45 -24 -2 -5 3 -8 13 -7 9 0 16 -4 15 -10 -1 -7
5 -11 15 -10 9 0 17 -4 17 -11 0 -6 4 -15 9 -20 5 -5 6 -3 2 5 -11 18 9 15 25
-5 12 -15 12 -16 -1 -8 -9 5 -12 4 -7 -1 5 -5 16 -9 25 -9 9 0 17 -7 17 -15 0
-8 9 -15 20 -15 11 0 20 -7 20 -15 0 -8 7 -14 16 -12 9 1 24 -8 35 -20 19 -22
19 -23 -1 -8 -18 14 -19 14 -7 -2 8 -9 19 -15 26 -12 6 2 23 -8 36 -23 l25
-28 -25 20 -25 20 18 -22 c11 -12 24 -20 31 -17 6 2 29 -15 51 -38 29 -31 31
-34 8 -14 -45 41 -42 28 4 -15 20 -18 33 -28 29 -21 -15 27 11 10 61 -40 47
-47 70 -80 43 -63 -20 12 -9 -2 27 -36 l38 -34 -30 35 c-28 33 -28 33 13 -5
23 -22 40 -45 38 -51 -3 -7 5 -20 17 -31 l22 -18 -20 25 -20 25 28 -25 c15
-13 25 -30 23 -36 -3 -7 3 -18 12 -26 16 -12 16 -11 2 7 -15 20 -14 20 8 1 23
-20 31 -42 10 -30 -9 5 -9 2 1 -9 16 -20 26 -23 15 -4 -5 8 -2 8 9 -2 20 -16
23 -36 5 -25 -8 4 -10 3 -5 -2 5 -5 14 -9 20 -9 7 0 12 -8 12 -17 0 -9 4 -20
9 -25 5 -5 6 -2 2 7 -4 8 2 4 13 -10 11 -14 19 -31 16 -37 -2 -7 1 -12 8 -10
7 1 11 -6 11 -15 -1 -10 2 -15 7 -13 11 8 31 -33 23 -47 -4 -7 -3 -8 4 -4 14
8 36 -30 26 -46 -5 -7 -3 -8 6 -3 10 6 12 4 7 -9 -5 -11 -3 -15 5 -10 8 5 9 2
5 -10 -4 -9 -3 -15 2 -11 21 12 65 -192 55 -256 -2 -13 -6 -46 -9 -73 -5 -36
-9 -46 -17 -35 -7 10 -8 8 -3 -8 8 -28 -3 -66 -16 -58 -5 3 -6 -1 -3 -9 7 -18
-24 -79 -36 -71 -6 3 -7 0 -4 -8 2 -7 -5 -25 -16 -38 -12 -13 -18 -17 -14 -9
7 13 5 13 -9 1 -18 -15 -23 -26 -7 -16 6 3 10 2 10 -2 0 -16 -116 -124 -125
-116 -4 5 -5 3 -2 -3 8 -13 -38 -58 -51 -50 -5 3 -22 -9 -38 -27 l-29 -32 35
30 c34 29 33 28 -5 -13 -35 -38 -66 -57 -50 -32 12 19 -2 10 -26 -17 l-24 -28
25 20 25 20 -25 -28 c-13 -15 -30 -25 -36 -23 -7 3 -18 -3 -26 -12 -12 -16
-11 -16 7 -2 20 15 20 15 1 -8 -11 -12 -25 -21 -32 -18 -7 3 -18 -3 -26 -12
-12 -16 -11 -16 7 -2 20 15 20 14 1 -8 -11 -12 -26 -21 -35 -20 -9 2 -16 -4
-16 -12 0 -8 -9 -15 -20 -15 -11 0 -20 -7 -20 -15 0 -8 -8 -15 -17 -15 -9 0
-20 -4 -25 -9 -5 -5 -2 -6 7 -1 13 8 13 7 1 -8 -16 -20 -36 -23 -25 -4 4 7 3
9 -2 4 -5 -5 -9 -14 -9 -20 0 -7 -8 -12 -17 -12 -9 0 -20 -4 -25 -9 -5 -5 -2
-6 6 -1 10 6 12 4 7 -4 -5 -7 -14 -10 -22 -7 -7 3 -16 0 -20 -6 -5 -7 -2 -8 7
-3 12 8 12 6 0 -8 -16 -20 -36 -23 -25 -4 4 7 3 9 -2 4 -5 -5 -9 -14 -9 -19 0
-6 -6 -13 -14 -16 -9 -3 -11 0 -6 8 5 9 4 11 -4 6 -6 -4 -9 -11 -6 -16 7 -11
-32 -33 -45 -25 -5 3 -12 0 -16 -6 -5 -8 -2 -10 7 -5 8 4 3 -2 -11 -13 -14
-11 -31 -19 -37 -16 -7 2 -12 -1 -10 -8 1 -7 -6 -11 -15 -11 -10 1 -15 -3 -11
-9 4 -6 0 -8 -10 -4 -9 3 -19 1 -23 -5 -5 -7 -2 -8 6 -3 9 6 11 4 6 -4 -5 -7
-15 -10 -23 -7 -8 3 -11 2 -8 -4 7 -12 -32 -33 -47 -24 -7 4 -8 3 -4 -4 8 -14
-50 -46 -66 -36 -7 4 -8 3 -4 -4 8 -14 -50 -46 -66 -36 -7 4 -8 3 -4 -4 8 -14
-30 -36 -46 -26 -7 5 -8 3 -3 -6 6 -10 4 -12 -9 -7 -11 5 -15 3 -10 -5 5 -8 2
-9 -10 -5 -11 5 -15 3 -10 -5 5 -8 2 -9 -10 -5 -10 4 -15 3 -11 -3 8 -12 -232
-133 -247 -124 -6 4 -8 3 -5 -3 9 -14 -17 -24 -40 -17 -13 4 -15 3 -5 -4 10
-7 6 -12 -17 -21 -16 -7 -35 -10 -42 -5 -7 4 -10 3 -6 -3 8 -13 -41 -36 -55
-27 -6 4 -8 2 -5 -3 9 -14 -48 -37 -64 -27 -8 5 -9 3 -4 -6 6 -10 4 -12 -9 -7
-9 4 -15 3 -12 -2 8 -12 -50 -35 -65 -25 -7 4 -10 3 -6 -3 9 -14 -48 -37 -64
-27 -7 4 -10 3 -5 -4 8 -13 -29 -26 -45 -16 -7 4 -9 3 -6 -3 9 -14 -98 -57
-114 -47 -7 4 -9 3 -5 -4 8 -13 -59 -36 -75 -26 -7 4 -9 3 -5 -4 8 -13 -29
-26 -45 -16 -7 4 -9 3 -5 -4 8 -13 -59 -36 -75 -26 -7 4 -9 3 -5 -4 8 -13 -89
-47 -105 -36 -7 4 -9 3 -5 -4 9 -15 -386 -146 -416 -137 -15 4 -19 3 -10 -3
18 -12 -240 -86 -271 -77 -18 5 -19 4 -7 -5 12 -9 8 -10 -20 -6 -21 4 -30 3
-22 -3 19 -12 -257 -77 -513 -120 -571 -97 -1059 -101 -1496 -10 -122 25 -261
67 -255 77 2 4 -8 7 -23 8 -62 2 -200 131 -258 239 -54 104 -64 159 -70 391
-6 232 3 342 43 544 176 886 815 1713 1653 2139 393 199 795 310 1231 340 180
12 237 12 405 1z m2541 -1250 c254 -65 433 -181 482 -313 29 -76 38 -155 22
-201 -14 -45 -73 -94 -194 -161 -108 -61 -177 -130 -222 -220 -48 -99 -59
-167 -45 -292 17 -150 4 -186 -87 -230 -53 -26 -63 -27 -232 -30 -141 -2 -189
-6 -239 -22 -130 -40 -193 -112 -267 -304 -84 -220 -154 -340 -258 -447 -120
-123 -225 -151 -480 -124 -87 9 -198 14 -261 12 -133 -5 -182 -26 -263 -113
-86 -92 -138 -107 -332 -90 -114 9 -208 -4 -329 -48 -154 -55 -212 -105 -539
-455 -174 -186 -293 -255 -442 -255 -97 0 -157 21 -325 118 -321 184 -518 245
-718 223 -94 -10 -173 -37 -277 -97 -114 -66 -178 -86 -270 -86 -85 1 -104 9
-213 88 -140 102 -223 116 -407 71 -76 -19 -120 -25 -159 -21 -118 12 -201
106 -201 228 0 136 79 274 268 471 l75 77 37 -57 c74 -114 201 -218 319 -263
125 -46 319 -89 551 -121 128 -17 685 -17 845 0 599 66 1146 202 1823 453 401
149 817 339 1163 532 393 218 716 454 969 707 184 183 238 281 260 470 17 153
-16 301 -100 439 -27 45 -46 81 -41 81 4 0 43 -9 87 -20z m922 -2664 c174 -88
316 -263 357 -439 18 -78 7 -127 -39 -173 -29 -29 -113 -64 -154 -64 -31 0
-235 -65 -367 -117 -472 -186 -922 -489 -1312 -885 -160 -162 -245 -261 -373
-432 -149 -200 -232 -270 -387 -322 -63 -22 -101 -28 -203 -32 -149 -5 -208 3
-485 68 -446 105 -640 130 -1047 137 -536 10 -855 -32 -1260 -163 -197 -64
-302 -107 -497 -203 -156 -76 -227 -97 -304 -87 -62 7 -108 41 -138 103 -18
37 -24 69 -27 152 -4 118 14 230 64 385 l28 88 55 -6 c470 -56 964 -42 1561
44 1193 171 2532 643 3500 1233 355 217 794 541 934 691 22 24 42 44 44 45 1
0 24 -10 50 -23z m-6596 -474 c15 -136 62 -249 136 -326 40 -41 43 -47 22 -41
-49 14 -126 52 -158 79 -59 50 -111 167 -127 285 -9 65 -1 72 70 69 l50 -3 7
-63z m6628 -637 c11 -120 1 -270 -25 -396 -8 -39 -15 -73 -15 -77 0 -4 -5 0
-11 8 -8 12 -9 10 -4 -8 10 -35 -59 -237 -77 -226 -7 5 -8 2 -3 -5 9 -15 -24
-93 -36 -85 -5 3 -6 -3 -2 -12 4 -12 3 -15 -5 -10 -8 5 -10 1 -5 -10 5 -13 3
-15 -7 -9 -9 5 -11 4 -6 -3 10 -16 -12 -54 -26 -46 -7 4 -8 3 -4 -4 10 -16
-22 -74 -36 -66 -7 4 -8 3 -4 -4 9 -14 -12 -55 -24 -47 -5 3 -12 0 -16 -6 -5
-8 -3 -9 6 -4 8 5 11 3 8 -6 -3 -8 -10 -14 -15 -14 -6 0 -15 -4 -20 -9 -5 -5
-3 -6 5 -2 18 11 15 -9 -5 -25 -14 -12 -16 -12 -8 0 5 9 4 12 -3 7 -6 -4 -9
-13 -6 -20 3 -8 0 -17 -7 -22 -8 -5 -10 -3 -4 7 5 8 4 11 -1 6 -5 -5 -9 -16
-9 -25 0 -9 -7 -17 -15 -17 -8 0 -14 -7 -12 -16 1 -9 -8 -24 -20 -35 -22 -19
-23 -19 -8 1 14 18 14 19 -2 7 -9 -8 -15 -19 -12 -26 3 -7 -6 -21 -18 -32 -23
-19 -23 -19 -8 1 14 18 14 19 -2 7 -9 -8 -15 -19 -12 -25 2 -7 -15 -30 -38
-52 -41 -38 -41 -38 -13 -5 l30 35 -32 -29 c-17 -15 -30 -33 -27 -40 6 -14
-181 -200 -193 -193 -6 4 -23 -8 -39 -26 l-29 -32 35 30 c34 29 33 28 -5 -13
-35 -38 -66 -57 -50 -32 12 19 -2 10 -26 -17 l-24 -28 25 20 25 20 -25 -28
c-13 -15 -30 -25 -36 -23 -7 3 -18 -3 -26 -12 -12 -16 -11 -16 7 -2 20 15 20
15 1 -8 -11 -12 -25 -21 -32 -18 -7 3 -18 -3 -26 -12 -12 -16 -11 -16 7 -2 19
14 19 14 6 -3 -8 -10 -20 -16 -27 -13 -7 3 -18 -3 -26 -12 -12 -16 -11 -16 7
-2 20 15 20 14 1 -8 -20 -23 -42 -31 -30 -9 4 7 3 9 -2 4 -5 -5 -9 -14 -9 -20
0 -7 -9 -12 -20 -12 -11 0 -20 -7 -20 -15 0 -8 -8 -14 -17 -14 -10 1 -16 -3
-15 -10 1 -6 -6 -11 -15 -11 -9 0 -20 -4 -25 -9 -4 -5 -3 -6 5 -2 6 4 12 5 12
3 0 -11 -112 -77 -121 -72 -5 4 -8 1 -7 -7 2 -7 -5 -12 -14 -12 -10 1 -15 -2
-13 -7 7 -11 -33 -32 -45 -24 -6 4 -9 1 -8 -7 2 -7 -5 -12 -14 -12 -10 1 -15
-3 -11 -9 4 -6 0 -8 -11 -4 -10 4 -15 3 -11 -3 8 -12 -52 -43 -67 -34 -7 4 -8
3 -4 -4 8 -14 -50 -46 -66 -36 -7 5 -8 3 -3 -6 6 -10 4 -12 -9 -7 -10 4 -15 3
-11 -3 8 -12 -213 -123 -232 -116 -8 3 -12 2 -9 -3 7 -11 -22 -23 -36 -14 -6
3 -8 1 -5 -4 9 -14 -48 -37 -64 -27 -7 4 -10 3 -6 -3 9 -14 -48 -37 -64 -27
-7 4 -10 3 -5 -4 8 -13 -29 -26 -45 -16 -7 4 -9 3 -5 -4 8 -13 -59 -36 -75
-26 -7 4 -9 3 -5 -4 8 -13 -89 -47 -105 -36 -7 4 -9 3 -5 -4 7 -11 -8 -17
-254 -91 -251 -75 -414 -109 -715 -148 -215 -28 -746 -25 -942 5 -656 99
-1128 351 -1387 740 -65 97 -146 256 -146 285 0 39 482 206 752 261 266 53
365 61 768 61 329 -1 395 -3 536 -23 198 -27 372 -60 614 -117 249 -59 324
-69 488 -62 154 6 223 22 327 74 64 32 78 35 155 36 l85 0 -75 7 c-67 6 -83
11 -40 14 8 1 15 8 15 16 0 8 8 14 17 14 9 -1 29 13 45 30 l28 31 -35 -30
c-19 -16 -8 -2 25 33 62 65 91 86 39 30 l-29 -33 32 29 c17 15 29 34 27 40 -3
7 6 21 18 32 23 19 23 19 8 -1 -12 -17 -12 -18 0 -7 8 7 15 20 15 30 0 9 5 17
12 17 6 0 15 4 20 9 5 5 2 6 -6 1 -9 -5 -12 -3 -9 6 3 8 10 14 15 14 6 0 15 4
20 9 5 5 3 6 -4 2 -19 -11 -16 9 4 25 11 10 14 10 9 2 -11 -19 -1 -16 15 4 10
11 10 14 2 9 -22 -12 -14 10 9 30 22 19 23 19 8 -1 -14 -18 -14 -19 2 -7 9 8
15 19 12 26 -3 7 6 21 18 32 23 19 23 19 8 -1 -14 -18 -14 -19 2 -7 9 8 15 19
12 26 -3 7 6 21 18 32 18 15 20 15 9 2 -19 -25 -8 -22 15 4 10 12 13 18 7 14
-26 -15 -12 11 24 45 34 31 35 31 13 4 l-25 -30 27 24 c15 13 25 28 21 34 -6
9 295 317 310 317 4 0 5 -4 2 -10 -12 -20 2 -9 31 22 l29 33 -30 -25 c-27 -22
-27 -21 4 13 32 34 61 51 46 27 -11 -18 1 -11 21 12 19 22 19 23 -1 8 -20 -15
-20 -15 -1 8 11 12 25 21 32 18 7 -3 18 3 26 12 12 16 11 16 -7 2 -15 -11 -14
-7 4 13 23 26 49 38 36 17 -10 -16 1 -11 16 7 12 15 12 16 -1 8 -13 -8 -13 -7
-1 8 7 10 21 16 30 15 8 -2 16 4 16 12 0 8 9 15 20 15 11 0 20 7 20 15 0 8 8
15 17 15 9 0 20 4 25 9 5 5 2 6 -7 1 -13 -8 -13 -7 -1 8 16 20 36 23 25 5 -4
-8 -3 -10 2 -5 5 5 9 14 9 20 0 7 8 11 17 11 10 -1 16 3 15 10 -1 6 6 10 15
10 10 -1 16 3 15 10 -1 6 6 10 15 10 10 -1 16 3 15 10 -1 6 6 10 15 10 10 -1
16 3 15 10 -1 6 6 10 15 10 10 -1 15 2 13 7 -7 11 33 32 45 24 6 -4 9 -1 8 7
-2 7 5 12 14 12 10 -1 15 3 11 9 -4 6 0 8 10 4 10 -4 16 -2 14 6 -1 7 6 11 15
11 10 -1 15 3 11 9 -4 6 0 8 11 4 11 -5 15 -3 10 5 -5 8 -2 9 10 5 10 -4 15
-3 11 3 -8 12 232 133 247 124 6 -4 8 -3 5 3 -9 14 48 37 64 27 7 -4 10 -3 6
3 -9 14 48 37 64 27 7 -4 10 -3 5 4 -8 13 59 36 75 26 7 -4 9 -3 5 4 -3 6 11
16 36 25 l43 14 17 -71 c10 -39 22 -120 28 -181z m-6469 140 l76 -26 7 -97
c15 -226 119 -548 218 -670 19 -23 56 -58 83 -77 54 -39 46 -43 -47 -24 -128
27 -225 106 -286 232 -94 195 -163 490 -147 629 4 32 10 58 13 58 4 0 41 -11
83 -25z"/>
<path d="M8440 10228 c15 -16 48 -26 60 -18 12 7 10 9 -5 8 -11 0 -29 3 -40 7
-11 5 -18 6 -15 3z"/>
<path d="M8500 10196 c0 -3 9 -10 20 -16 11 -6 20 -8 20 -6 0 3 -9 10 -20 16
-11 6 -20 8 -20 6z"/>
<path d="M7935 10123 c28 -14 64 -37 80 -52 l30 -26 -29 32 c-16 18 -38 36
-49 39 -16 5 -17 8 -6 16 10 6 7 7 -10 3 -13 -4 -21 -3 -18 1 3 5 -7 10 -21
11 -22 1 -17 -4 23 -24z"/>
<path d="M8630 10116 c0 -3 9 -10 20 -16 11 -6 20 -8 20 -6 0 3 -9 10 -20 16
-11 6 -20 8 -20 6z"/>
<path d="M8020 10106 c0 -2 8 -10 18 -17 15 -13 16 -12 3 4 -13 16 -21 21 -21
13z"/>
<path d="M8680 10086 c0 -2 14 -14 30 -26 17 -12 30 -19 30 -16 0 2 -13 14
-30 26 -16 12 -30 19 -30 16z"/>
<path d="M8041 10023 c0 -13 5 -23 12 -23 16 0 37 20 37 35 0 5 -5 2 -11 -7
-5 -10 -14 -18 -19 -18 -5 0 -11 8 -13 18 -4 13 -5 11 -6 -5z"/>
<path d="M8750 10036 c0 -2 14 -14 30 -26 17 -12 30 -19 30 -16 0 2 -13 14
-30 26 -16 12 -30 19 -30 16z"/>
<path d="M7078 10024 c-4 -3 12 -22 34 -42 23 -20 49 -50 60 -67 10 -16 18
-25 18 -19 0 15 -55 84 -81 102 -17 12 -18 16 -8 23 11 7 11 9 -2 9 -9 0 -18
-3 -21 -6z"/>
<path d="M7140 10007 c0 -2 15 -16 33 -33 l32 -29 -29 33 c-28 30 -36 37 -36
29z"/>
<path d="M8835 9970 c10 -11 20 -20 23 -20 3 0 -3 9 -13 20 -10 11 -20 20 -23
20 -3 0 3 -9 13 -20z"/>
<path d="M8885 9930 c10 -11 20 -20 23 -20 3 0 -3 9 -13 20 -10 11 -20 20 -23
20 -3 0 3 -9 13 -20z"/>
<path d="M7209 9923 c13 -27 14 -73 2 -73 -5 0 -11 8 -13 18 -3 14 -5 12 -10
-6 -5 -20 -3 -23 15 -20 28 4 35 54 12 83 -16 20 -16 20 -6 -2z"/>
<path d="M8940 9885 c13 -14 26 -25 28 -25 3 0 -5 11 -18 25 -13 14 -26 25
-28 25 -3 0 5 -11 18 -25z"/>
<path d="M8787 9843 c-3 -5 18 -28 47 -52 l51 -43 -46 45 c-27 26 -42 48 -35
51 8 3 8 5 -1 5 -6 1 -14 -2 -16 -6z"/>
<path d="M9105 9730 c66 -66 122 -120 125 -120 2 0 -49 54 -115 120 -66 66
-122 120 -125 120 -2 0 49 -54 115 -120z"/>
<path d="M8880 9796 c0 -2 8 -10 18 -17 15 -13 16 -12 3 4 -13 16 -21 21 -21
13z"/>
<path d="M8915 9725 c0 -18 3 -31 8 -28 4 2 7 15 7 28 0 13 -3 26 -7 28 -5 3
-8 -10 -8 -28z"/>
<path d="M8886 9705 c-3 -8 -1 -15 4 -15 6 0 10 7 10 15 0 8 -2 15 -4 15 -2 0
-6 -7 -10 -15z"/>
<path d="M6436 9702 c-2 -4 -1 -14 4 -22 7 -11 9 -9 7 8 -1 24 -3 26 -11 14z"/>
<path d="M6483 9640 c0 -30 2 -43 4 -27 2 15 2 39 0 55 -2 15 -4 2 -4 -28z"/>
<path d="M6452 9635 c0 -16 2 -22 5 -12 2 9 2 23 0 30 -3 6 -5 -1 -5 -18z"/>
<path d="M6434 9555 c-5 -24 -7 -42 -2 -39 8 5 23 73 16 79 -2 2 -8 -16 -14
-40z"/>
<path d="M9260 9565 c13 -14 26 -25 28 -25 3 0 -5 11 -18 25 -13 14 -26 25
-28 25 -3 0 5 -11 18 -25z"/>
<path d="M6471 9564 c0 -11 3 -14 6 -6 3 7 2 16 -1 19 -3 4 -6 -2 -5 -13z"/>
<path d="M6456 9525 c-3 -8 -16 -20 -28 -25 -15 -5 -17 -9 -7 -9 17 -1 56 36
47 44 -3 3 -8 -1 -12 -10z"/>
<path d="M7780 9525 c0 -3 19 -22 42 -43 22 -20 49 -55 59 -77 10 -22 19 -34
19 -27 0 23 -27 66 -64 101 -26 25 -32 37 -23 43 8 5 4 8 -10 8 -13 0 -23 -2
-23 -5z"/>
<path d="M9305 9510 c10 -11 20 -20 23 -20 3 0 -3 9 -13 20 -10 11 -20 20 -23
20 -3 0 3 -9 13 -20z"/>
<path d="M7860 9496 c0 -2 8 -10 18 -17 15 -13 16 -12 3 4 -13 16 -21 21 -21
13z"/>
<path d="M9330 9476 c0 -2 8 -10 18 -17 15 -13 16 -12 3 4 -13 16 -21 21 -21
13z"/>
<path d="M9360 9436 c0 -2 8 -10 18 -17 15 -13 16 -12 3 4 -13 16 -21 21 -21
13z"/>
<path d="M7932 9380 c0 -14 2 -19 5 -12 2 6 2 18 0 25 -3 6 -5 1 -5 -13z"/>
<path d="M7890 9350 c0 -6 7 -10 15 -10 8 0 15 2 15 4 0 2 -7 6 -15 10 -8 3
-15 1 -15 -4z"/>
<path d="M9532 9165 c12 -24 23 -43 26 -41 4 5 -36 86 -43 86 -3 0 5 -20 17
-45z"/>
<path d="M7007 9104 c-3 -4 -1 -16 5 -28 6 -11 17 -39 24 -61 7 -22 13 -31 13
-20 0 11 -8 39 -19 63 -20 43 -11 57 20 30 12 -11 12 -10 1 5 -14 17 -33 22
-44 11z"/>
<path d="M9561 9105 c1 -19 18 -51 18 -35 0 8 -4 22 -9 30 -5 8 -9 11 -9 5z"/>
<path d="M9581 9034 c0 -11 3 -14 6 -6 3 7 2 16 -1 19 -3 4 -6 -2 -5 -13z"/>
<path d="M7083 8960 c0 -30 2 -43 4 -27 2 15 2 39 0 55 -2 15 -4 2 -4 -28z"/>
<path d="M9592 8990 c0 -14 2 -19 5 -12 2 6 2 18 0 25 -3 6 -5 1 -5 -13z"/>
<path d="M5865 8988 c-3 -8 -1 -25 5 -39 9 -22 10 -21 4 9 -4 24 -2 32 10 32
10 0 16 -13 19 -40 l4 -40 -1 42 c-1 32 -5 44 -19 46 -9 2 -19 -3 -22 -10z"/>
<path d="M7052 8945 c0 -16 2 -22 5 -12 2 9 2 23 0 30 -3 6 -5 -1 -5 -18z"/>
<path d="M9603 8885 c0 -38 2 -53 4 -32 2 20 2 52 0 70 -2 17 -4 1 -4 -38z"/>
<path d="M5862 8900 c0 -14 2 -19 5 -12 2 6 2 18 0 25 -3 6 -5 1 -5 -13z"/>
<path d="M5891 8893 c-1 -6 -4 -20 -7 -30 -5 -17 -5 -17 6 0 6 10 9 23 6 30
-3 9 -5 9 -5 0z"/>
<path d="M5832 8825 c-12 -25 -20 -45 -17 -45 7 0 47 81 43 86 -3 2 -14 -17
-26 -41z"/>
<path d="M5849 8803 c-13 -16 -12 -17 4 -4 9 7 17 15 17 17 0 8 -8 3 -21 -13z"/>
<path d="M9592 8780 c0 -14 2 -19 5 -12 2 6 2 18 0 25 -3 6 -5 1 -5 -13z"/>
<path d="M9581 8734 c0 -11 3 -14 6 -6 3 7 2 16 -1 19 -3 4 -6 -2 -5 -13z"/>
<path d="M10371 8724 c0 -11 3 -14 6 -6 3 7 2 16 -1 19 -3 4 -6 -2 -5 -13z"/>
<path d="M9532 8605 c-12 -25 -20 -45 -17 -45 7 0 47 81 43 86 -3 2 -14 -17
-26 -41z"/>
<path d="M10371 8564 c0 -11 3 -14 6 -6 3 7 2 16 -1 19 -3 4 -6 -2 -5 -13z"/>
<path d="M9464 8498 l-19 -23 23 19 c12 11 22 21 22 23 0 8 -8 2 -26 -19z"/>
<path d="M9375 8398 l-70 -73 73 70 c67 64 77 75 69 75 -1 0 -34 -33 -72 -72z"/>
<path d="M9239 8273 l-34 -38 38 34 c20 19 37 36 37 38 0 8 -8 0 -41 -34z"/>
<path d="M10184 8218 l-29 -33 33 29 c30 28 37 36 29 36 -2 0 -16 -15 -33 -32z"/>
<path d="M9169 8213 l-24 -28 28 24 c15 14 27 26 27 28 0 8 -8 1 -31 -24z"/>
<path d="M9104 8158 l-19 -23 23 19 c21 18 27 26 19 26 -2 0 -12 -10 -23 -22z"/>
<path d="M9054 8118 l-19 -23 23 19 c21 18 27 26 19 26 -2 0 -12 -10 -23 -22z"/>
<path d="M9009 8083 c-13 -16 -12 -17 4 -4 9 7 17 15 17 17 0 8 -8 3 -21 -13z"/>
<path d="M8969 8053 c-13 -16 -12 -17 4 -4 16 13 21 21 13 21 -2 0 -10 -8 -17
-17z"/>
<path d="M8929 8023 c-13 -16 -12 -17 4 -4 16 13 21 21 13 21 -2 0 -10 -8 -17
-17z"/>
<path d="M8845 7964 l-30 -26 33 22 c17 12 32 23 32 26 0 7 -4 5 -35 -22z"/>
<path d="M8683 7859 c-35 -22 -46 -37 -15 -20 22 13 58 40 52 41 -3 0 -20 -10
-37 -21z"/>
<path d="M8584 7794 c-18 -14 -18 -15 4 -4 12 6 22 13 22 15 0 8 -5 6 -26 -11z"/>
<path d="M8534 7764 c-18 -14 -18 -15 4 -4 12 6 22 13 22 15 0 8 -5 6 -26 -11z"/>
<path d="M8484 7734 c-18 -14 -18 -15 4 -4 12 6 22 13 22 15 0 8 -5 6 -26 -11z"/>
<path d="M8414 7694 c-18 -14 -18 -15 4 -4 12 6 22 13 22 15 0 8 -5 6 -26 -11z"/>
<path d="M8338 7654 c-38 -20 -36 -28 2 -9 17 9 30 18 30 20 0 7 -1 6 -32 -11z"/>
<path d="M8198 7579 c-32 -16 -58 -32 -58 -34 0 -3 27 8 60 25 33 17 60 32 60
35 0 7 2 8 -62 -26z"/>
<path d="M7970 7465 c-36 -19 -60 -34 -55 -34 6 0 39 15 75 34 36 19 61 34 55
34 -5 0 -39 -15 -75 -34z"/>
<path d="M7820 7395 c-14 -8 -20 -14 -15 -14 6 0 21 6 35 14 14 8 21 14 15 14
-5 0 -21 -6 -35 -14z"/>
<path d="M7720 7350 c-8 -5 -10 -10 -5 -10 6 0 17 5 25 10 8 5 11 10 5 10 -5
0 -17 -5 -25 -10z"/>
<path d="M7650 7320 c-8 -5 -10 -10 -5 -10 6 0 17 5 25 10 8 5 11 10 5 10 -5
0 -17 -5 -25 -10z"/>
<path d="M7580 7290 c-8 -5 -10 -10 -5 -10 6 0 17 5 25 10 8 5 11 10 5 10 -5
0 -17 -5 -25 -10z"/>
<path d="M7530 7270 c-8 -5 -10 -10 -5 -10 6 0 17 5 25 10 8 5 11 10 5 10 -5
0 -17 -5 -25 -10z"/>
<path d="M7330 7190 c-8 -5 -10 -10 -5 -10 6 0 17 5 25 10 8 5 11 10 5 10 -5
0 -17 -5 -25 -10z"/>
<path d="M7170 7130 c-8 -5 -10 -10 -5 -10 6 0 17 5 25 10 8 5 11 10 5 10 -5
0 -17 -5 -25 -10z"/>
<path d="M7060 7090 c-8 -5 -10 -10 -5 -10 6 0 17 5 25 10 8 5 11 10 5 10 -5
0 -17 -5 -25 -10z"/>
<path d="M6748 6983 c7 -3 16 -2 19 1 4 3 -2 6 -13 5 -11 0 -14 -3 -6 -6z"/>
<path d="M6548 6923 c7 -3 16 -2 19 1 4 3 -2 6 -13 5 -11 0 -14 -3 -6 -6z"/>
<path d="M6478 6903 c7 -3 16 -2 19 1 4 3 -2 6 -13 5 -11 0 -14 -3 -6 -6z"/>
<path d="M6438 6893 c7 -3 16 -2 19 1 4 3 -2 6 -13 5 -11 0 -14 -3 -6 -6z"/>
<path d="M6368 6873 c7 -3 16 -2 19 1 4 3 -2 6 -13 5 -11 0 -14 -3 -6 -6z"/>
<path d="M6328 6863 c7 -3 16 -2 19 1 4 3 -2 6 -13 5 -11 0 -14 -3 -6 -6z"/>
<path d="M6288 6853 c7 -3 16 -2 19 1 4 3 -2 6 -13 5 -11 0 -14 -3 -6 -6z"/>
<path d="M6198 6833 c7 -3 16 -2 19 1 4 3 -2 6 -13 5 -11 0 -14 -3 -6 -6z"/>
<path d="M6158 6823 c7 -3 16 -2 19 1 4 3 -2 6 -13 5 -11 0 -14 -3 -6 -6z"/>
<path d="M6108 6813 c7 -3 16 -2 19 1 4 3 -2 6 -13 5 -11 0 -14 -3 -6 -6z"/>
<path d="M6068 6803 c7 -3 16 -2 19 1 4 3 -2 6 -13 5 -11 0 -14 -3 -6 -6z"/>
<path d="M6008 6793 c6 -2 18 -2 25 0 6 3 1 5 -13 5 -14 0 -19 -2 -12 -5z"/>
<path d="M5958 6783 c6 -2 18 -2 25 0 6 3 1 5 -13 5 -14 0 -19 -2 -12 -5z"/>
<path d="M5908 6773 c6 -2 18 -2 25 0 6 3 1 5 -13 5 -14 0 -19 -2 -12 -5z"/>
<path d="M5853 6763 c9 -2 23 -2 30 0 6 3 -1 5 -18 5 -16 0 -22 -2 -12 -5z"/>
<path d="M5798 6753 c6 -2 18 -2 25 0 6 3 1 5 -13 5 -14 0 -19 -2 -12 -5z"/>
<path d="M5733 6743 c9 -2 23 -2 30 0 6 3 -1 5 -18 5 -16 0 -22 -2 -12 -5z"/>
<path d="M5673 6733 c9 -2 23 -2 30 0 6 3 -1 5 -18 5 -16 0 -22 -2 -12 -5z"/>
<path d="M5593 6723 c9 -2 23 -2 30 0 6 3 -1 5 -18 5 -16 0 -22 -2 -12 -5z"/>
<path d="M5503 6713 c9 -2 25 -2 35 0 9 3 1 5 -18 5 -19 0 -27 -2 -17 -5z"/>
<path d="M5408 6703 c12 -2 30 -2 40 0 9 3 -1 5 -23 4 -22 0 -30 -2 -17 -4z"/>
<path d="M5273 6693 c15 -2 39 -2 55 0 15 2 2 4 -28 4 -30 0 -43 -2 -27 -4z"/>
<path d="M4958 6683 c39 -2 105 -2 145 0 39 1 7 3 -73 3 -80 0 -112 -2 -72 -3z"/>
<path d="M7038 6673 c7 -3 16 -2 19 1 4 3 -2 6 -13 5 -11 0 -14 -3 -6 -6z"/>
<path d="M6748 6613 c7 -3 16 -2 19 1 4 3 -2 6 -13 5 -11 0 -14 -3 -6 -6z"/>
<path d="M6638 6593 c7 -3 16 -2 19 1 4 3 -2 6 -13 5 -11 0 -14 -3 -6 -6z"/>
<path d="M6568 6583 c7 -3 16 -2 19 1 4 3 -2 6 -13 5 -11 0 -14 -3 -6 -6z"/>
<path d="M5288 6573 c7 -3 16 -2 19 1 4 3 -2 6 -13 5 -11 0 -14 -3 -6 -6z"/>
<path d="M6498 6573 c6 -2 18 -2 25 0 6 3 1 5 -13 5 -14 0 -19 -2 -12 -5z"/>
<path d="M5348 6563 c6 -2 18 -2 25 0 6 3 1 5 -13 5 -14 0 -19 -2 -12 -5z"/>
<path d="M6418 6563 c6 -2 18 -2 25 0 6 3 1 5 -13 5 -14 0 -19 -2 -12 -5z"/>
<path d="M5418 6553 c6 -2 18 -2 25 0 6 3 1 5 -13 5 -14 0 -19 -2 -12 -5z"/>
<path d="M6333 6553 c9 -2 23 -2 30 0 6 3 -1 5 -18 5 -16 0 -22 -2 -12 -5z"/>
<path d="M5518 6543 c6 -2 18 -2 25 0 6 3 1 5 -13 5 -14 0 -19 -2 -12 -5z"/>
<path d="M6218 6543 c6 -2 18 -2 25 0 6 3 1 5 -13 5 -14 0 -19 -2 -12 -5z"/>
<path d="M5658 6533 c12 -2 30 -2 40 0 9 3 -1 5 -23 4 -22 0 -30 -2 -17 -4z"/>
<path d="M6058 6533 c12 -2 30 -2 40 0 9 3 -1 5 -23 4 -22 0 -30 -2 -17 -4z"/>
<path d="M11381 5444 c0 -11 3 -14 6 -6 3 7 2 16 -1 19 -3 4 -6 -2 -5 -13z"/>
<path d="M11392 5390 c0 -14 2 -19 5 -12 2 6 2 18 0 25 -3 6 -5 1 -5 -13z"/>
<path d="M11402 5300 c0 -14 2 -19 5 -12 2 6 2 18 0 25 -3 6 -5 1 -5 -13z"/>
<path d="M11402 5070 c0 -14 2 -19 5 -12 2 6 2 18 0 25 -3 6 -5 1 -5 -13z"/>
<path d="M11391 4974 c0 -11 3 -14 6 -6 3 7 2 16 -1 19 -3 4 -6 -2 -5 -13z"/>
<path d="M11381 4914 c0 -11 3 -14 6 -6 3 7 2 16 -1 19 -3 4 -6 -2 -5 -13z"/>
<path d="M9985 4650 c-66 -66 -117 -120 -115 -120 3 0 59 54 125 120 66 66
117 120 115 120 -3 0 -59 -54 -125 -120z"/>
<path d="M10218 4583 c7 -3 16 -2 19 1 4 3 -2 6 -13 5 -11 0 -14 -3 -6 -6z"/>
<path d="M10351 4557 c52 -35 79 -82 81 -141 l1 -51 4 44 c3 24 -1 57 -8 72
-12 31 -82 99 -101 99 -6 0 4 -10 23 -23z"/>
<path d="M10125 4518 l-50 -53 53 50 c48 46 57 55 49 55 -1 0 -25 -24 -52 -52z"/>
<path d="M10044 4428 l-29 -33 33 29 c17 17 32 31 32 33 0 8 -8 1 -36 -29z"/>
<path d="M9994 4368 l-19 -23 23 19 c21 18 27 26 19 26 -2 0 -12 -10 -23 -22z"/>
<path d="M10416 4345 c-9 -26 -7 -32 5 -12 6 10 9 21 6 23 -2 3 -7 -2 -11 -11z"/>
<path d="M9949 4313 c-13 -16 -12 -17 4 -4 9 7 17 15 17 17 0 8 -8 3 -21 -13z"/>
<path d="M9909 4263 c-13 -16 -12 -17 4 -4 9 7 17 15 17 17 0 8 -8 3 -21 -13z"/>
<path d="M10372 4235 c-17 -37 -14 -45 4 -12 9 16 14 31 11 33 -2 2 -9 -7 -15
-21z"/>
<path d="M9874 4218 l-19 -23 23 19 c21 18 27 26 19 26 -2 0 -12 -10 -23 -22z"/>
<path d="M9839 4173 c-13 -16 -12 -17 4 -4 9 7 17 15 17 17 0 8 -8 3 -21 -13z"/>
<path d="M9755 4068 l-50 -53 53 50 c48 46 57 55 49 55 -1 0 -25 -24 -52 -52z"/>
<path d="M10295 4080 c-9 -16 -13 -30 -11 -30 3 0 12 14 21 30 9 17 13 30 11
30 -3 0 -12 -13 -21 -30z"/>
<path d="M10260 4020 c-6 -11 -8 -20 -6 -20 3 0 10 9 16 20 6 11 8 20 6 20 -3
0 -10 -9 -16 -20z"/>
<path d="M9674 4004 c-18 -14 -18 -15 4 -4 12 6 22 13 22 15 0 8 -5 6 -26 -11z"/>
<path d="M10230 3970 c-6 -11 -8 -20 -6 -20 3 0 10 9 16 20 6 11 8 20 6 20 -3
0 -10 -9 -16 -20z"/>
<path d="M9508 3943 c6 -2 18 -2 25 0 6 3 1 5 -13 5 -14 0 -19 -2 -12 -5z"/>
<path d="M10179 3893 c-13 -16 -12 -17 4 -4 9 7 17 15 17 17 0 8 -8 3 -21 -13z"/>
<path d="M10765 3858 l-50 -53 53 50 c48 46 57 55 49 55 -1 0 -25 -24 -52 -52z"/>
<path d="M10129 3823 c-13 -16 -12 -17 4 -4 9 7 17 15 17 17 0 8 -8 3 -21 -13z"/>
<path d="M10099 3783 c-13 -16 -12 -17 4 -4 16 13 21 21 13 21 -2 0 -10 -8
-17 -17z"/>
<path d="M10064 3738 l-19 -23 23 19 c12 11 22 21 22 23 0 8 -8 2 -26 -19z"/>
<path d="M10014 3678 l-29 -33 33 29 c30 28 37 36 29 36 -2 0 -16 -15 -33 -32z"/>
<path d="M9925 3578 l-60 -63 63 60 c58 55 67 65 59 65 -1 0 -29 -28 -62 -62z"/>
<path d="M9775 3428 l-60 -63 63 60 c34 33 62 61 62 62 0 8 -10 -1 -65 -59z"/>
<path d="M9664 3328 l-29 -33 33 29 c17 17 32 31 32 33 0 8 -8 1 -36 -29z"/>
<path d="M9599 3273 l-24 -28 28 24 c15 14 27 26 27 28 0 8 -8 1 -31 -24z"/>
<path d="M9544 3228 l-19 -23 23 19 c12 11 22 21 22 23 0 8 -8 2 -26 -19z"/>
<path d="M9499 3193 c-13 -16 -12 -17 4 -4 16 13 21 21 13 21 -2 0 -10 -8 -17
-17z"/>
<path d="M9459 3163 c-13 -16 -12 -17 4 -4 9 7 17 15 17 17 0 8 -8 3 -21 -13z"/>
<path d="M9419 3133 c-13 -16 -12 -17 4 -4 9 7 17 15 17 17 0 8 -8 3 -21 -13z"/>
<path d="M9335 3074 l-30 -26 33 22 c17 12 32 23 32 26 0 7 -4 5 -35 -22z"/>
<path d="M9214 2994 c-18 -14 -18 -15 4 -4 12 6 22 13 22 15 0 8 -5 6 -26 -11z"/>
<path d="M9134 2944 c-18 -14 -18 -15 4 -4 12 6 22 13 22 15 0 8 -5 6 -26 -11z"/>
<path d="M9084 2914 c-18 -14 -18 -15 4 -4 12 6 22 13 22 15 0 8 -5 6 -26 -11z"/>
<path d="M8960 2845 c-14 -8 -20 -14 -14 -15 5 0 19 7 30 15 24 18 16 19 -16
0z"/>
</g>
</svg>
