<svg version="1.1" id="Layer_1" xmlns="http://www.w3.org/2000/svg" xmlns:xlink="http://www.w3.org/1999/xlink" x="0px" y="0px"
	 width="100%" viewBox="0 0 577 433" enable-background="new 0 0 577 433" xml:space="preserve">
<path fill="#000000" opacity="1.000000" stroke="none" 
	d="
M402.000000,434.000000 
	C268.000031,434.000000 134.500061,434.000000 1.000072,434.000000 
	C1.000048,289.666748 1.000048,145.333466 1.000024,1.000149 
	C193.333206,1.000099 385.666412,1.000099 577.999756,1.000050 
	C577.999817,145.333191 577.999817,289.666382 577.999878,433.999786 
	C519.500000,434.000000 461.000000,434.000000 402.000000,434.000000 
M275.342010,404.800262 
	C288.920197,404.868835 302.498383,404.951447 316.076599,404.964233 
	C316.749176,404.964874 317.422333,404.357422 319.020142,404.003357 
	C326.511383,403.991333 334.035431,404.421722 341.486572,403.869080 
	C354.372131,402.913330 367.244812,401.597137 380.058472,399.935669 
	C386.745392,399.068634 393.355682,397.360626 399.864655,395.545166 
	C401.511108,395.085968 402.636780,392.759674 404.001770,391.291412 
	C402.704437,390.198792 401.561127,388.478516 400.084595,388.116180 
	C391.018799,385.891296 381.967865,383.134857 372.741272,382.141541 
	C357.213562,380.469940 341.559814,379.196289 325.956451,379.167511 
	C296.791260,379.113739 267.612274,378.015808 238.447449,380.793823 
	C223.830154,382.186188 209.250336,383.298553 195.041489,387.089264 
	C192.824448,387.680756 191.016022,389.803802 189.018631,391.218597 
	C190.834457,392.825958 192.453369,395.489624 194.497787,395.870728 
	C208.666824,398.512177 222.857529,401.328094 237.173676,402.801910 
	C249.660706,404.087402 262.321167,403.688141 275.342010,404.800262 
M153.047852,216.538712 
	C156.787399,218.095490 160.526962,219.652252 164.339355,221.239334 
	C165.495041,224.153595 166.037979,228.207962 168.315781,230.632370 
	C171.668091,234.200424 172.033859,237.928940 172.074371,242.306976 
	C172.154831,251.001236 173.392136,260.159027 179.168518,266.430054 
	C184.734192,272.472321 185.679993,277.803955 183.001938,284.767395 
	C182.590027,285.838409 182.206604,286.999573 182.180725,288.127563 
	C181.942596,298.509277 184.484634,306.733643 197.325882,304.922424 
	C199.566940,304.606354 201.720123,303.667084 203.522049,303.132019 
	C207.650269,308.947906 210.967194,315.005890 215.565125,319.847229 
	C231.411652,336.532715 252.225677,341.660095 274.135223,342.869751 
	C297.609100,344.165802 320.318756,339.785583 342.052887,330.840302 
	C366.310730,320.856323 388.016754,307.262421 403.808197,285.665833 
	C414.030640,271.685425 420.266174,256.396484 416.839203,238.803162 
	C415.831299,233.628830 417.228607,232.083923 421.685669,230.877106 
	C426.489136,229.576477 429.043243,226.227707 429.034790,220.948471 
	C429.021210,212.427216 423.921478,207.013184 418.022186,201.985535 
	C415.114441,199.507401 411.765930,197.722366 411.868591,192.766068 
	C412.109283,181.144226 408.763519,170.606979 400.521332,161.986572 
	C399.964661,161.404327 399.360596,160.687057 399.193878,159.939911 
	C397.336243,151.615524 395.560425,143.272873 393.678162,134.543884 
	C394.196442,134.128189 395.196533,133.282944 396.240509,132.495956 
	C401.537811,128.502762 402.664642,124.028023 400.403137,117.797913 
	C397.997528,111.170692 392.994690,107.434853 386.801300,105.050842 
	C378.735291,101.945999 369.217529,101.630661 364.241669,92.796127 
	C363.362091,91.234489 362.375671,89.474998 360.958710,88.515739 
	C351.450867,82.079140 342.273865,74.942940 332.128601,69.699463 
	C305.035675,55.696762 276.517670,54.404774 247.165421,61.747963 
	C227.126678,66.761154 210.631821,77.561424 196.050064,91.569695 
	C184.703812,102.469742 176.032730,115.477112 170.052383,129.993790 
	C163.758926,145.270523 160.314758,161.164841 162.897858,177.890884 
	C163.317215,180.606201 163.104874,183.018494 160.426941,185.328171 
	C156.978714,188.302246 154.067810,192.138428 151.698257,196.069138 
	C147.948105,202.290054 146.258621,210.152054 153.047852,216.538712 
z"/>
<path fill="#3F0875" opacity="1.000000" stroke="none" 
	d="
M152.774597,216.278351 
	C146.258621,210.152054 147.948105,202.290054 151.698257,196.069138 
	C154.067810,192.138428 156.978714,188.302246 160.426941,185.328171 
	C163.104874,183.018494 163.317215,180.606201 162.897858,177.890884 
	C160.314758,161.164841 163.758926,145.270523 170.052383,129.993790 
	C176.032730,115.477112 184.703812,102.469742 196.050064,91.569695 
	C210.631821,77.561424 227.126678,66.761154 247.165421,61.747963 
	C276.517670,54.404774 305.035675,55.696762 332.128601,69.699463 
	C342.273865,74.942940 351.450867,82.079140 360.958710,88.515739 
	C362.375671,89.474998 363.362091,91.234489 364.241669,92.796127 
	C369.217529,101.630661 378.735291,101.945999 386.801300,105.050842 
	C392.994690,107.434853 397.997528,111.170692 400.403137,117.797913 
	C402.664642,124.028023 401.537811,128.502762 396.240509,132.495956 
	C395.196533,133.282944 394.196442,134.128189 393.678162,134.543884 
	C395.560425,143.272873 397.336243,151.615524 399.193878,159.939911 
	C399.360596,160.687057 399.964661,161.404327 400.521332,161.986572 
	C408.763519,170.606979 412.109283,181.144226 411.868591,192.766068 
	C411.765930,197.722366 415.114441,199.507401 418.022186,201.985535 
	C423.921478,207.013184 429.021210,212.427216 429.034790,220.948471 
	C429.043243,226.227707 426.489136,229.576477 421.685669,230.877106 
	C417.228607,232.083923 415.831299,233.628830 416.839203,238.803162 
	C420.266174,256.396484 414.030640,271.685425 403.808197,285.665833 
	C388.016754,307.262421 366.310730,320.856323 342.052887,330.840302 
	C320.318756,339.785583 297.609100,344.165802 274.135223,342.869751 
	C252.225677,341.660095 231.411652,336.532715 215.565125,319.847229 
	C210.967194,315.005890 207.650269,308.947906 203.522049,303.132019 
	C201.720123,303.667084 199.566940,304.606354 197.325882,304.922424 
	C184.484634,306.733643 181.942596,298.509277 182.180725,288.127563 
	C182.206604,286.999573 182.590027,285.838409 183.001938,284.767395 
	C185.679993,277.803955 184.734192,272.472321 179.168518,266.430054 
	C173.392136,260.159027 172.154831,251.001236 172.074371,242.306976 
	C172.033859,237.928940 171.668091,234.200424 168.315781,230.632370 
	C166.037979,228.207962 165.495041,224.153595 164.339355,221.239334 
	C160.526962,219.652252 156.787399,218.095490 152.774597,216.278351 
M355.741089,190.047958 
	C358.654449,188.405914 361.567841,186.763870 365.137909,185.019943 
	C368.092377,183.054382 371.046844,181.088821 374.644531,178.881943 
	C377.418762,176.569656 380.193024,174.257370 383.545593,171.619873 
	C386.373871,168.276505 389.202179,164.933136 392.602417,161.110886 
	C396.809418,152.427841 390.984924,145.601227 389.237213,138.020172 
	C388.791962,137.978638 388.346680,137.937119 387.901398,137.895584 
	C387.270782,138.930466 386.640137,139.965347 385.409088,141.458252 
	C385.080444,144.031540 384.164337,146.695435 384.544373,149.159424 
	C385.357544,154.431290 384.082489,158.593063 379.037933,162.005341 
	C376.032379,162.542755 373.026825,163.080170 369.190735,163.382904 
	C364.861053,163.421997 360.213989,162.413071 356.762390,167.532639 
	C354.865112,172.024338 352.967804,176.516022 350.481689,181.357910 
	C346.321289,185.674377 342.147827,189.978455 338.015015,194.321198 
	C337.421478,194.944901 337.023987,195.755157 336.535767,196.479065 
	C337.477417,196.747528 338.627472,197.504959 339.327515,197.206573 
	C344.607544,194.956085 349.799103,192.498077 355.741089,190.047958 
M253.629257,223.073761 
	C254.171082,222.727493 254.712906,222.381210 255.845642,221.764236 
	C258.660858,218.985474 261.708130,216.401886 264.243622,213.387802 
	C269.728394,206.867691 275.900024,201.355865 284.881714,198.135544 
	C288.815887,198.256531 292.798553,198.794174 296.666321,198.344254 
	C299.033997,198.068802 301.225372,196.277847 304.240326,195.092804 
	C306.460571,193.666641 308.680847,192.240463 311.845245,190.869141 
	C316.578674,191.128738 321.321747,191.275894 326.042847,191.679581 
	C330.755066,192.082535 335.198120,191.838211 339.017578,188.187790 
	C339.017578,188.187790 339.207214,187.995163 339.854187,187.911255 
	C343.327118,182.180008 347.393402,176.716766 350.131714,170.653732 
	C354.081573,161.908142 357.553802,159.013641 367.077545,159.000977 
	C368.239899,158.999420 369.402374,159.024109 370.564606,159.014816 
	C378.848694,158.948532 380.537292,157.262314 380.012848,149.004608 
	C379.494812,140.847992 382.688873,134.964081 389.902557,131.041000 
	C392.161896,129.812271 394.004028,127.816437 396.572876,125.578499 
	C397.857056,115.333664 390.312653,108.301880 375.771179,106.362511 
	C375.941864,107.042397 375.973053,107.714027 376.273285,108.228691 
	C376.681030,108.927666 377.294586,109.506584 377.997375,110.888870 
	C378.700623,113.611328 379.664093,116.296417 380.061340,119.062813 
	C381.643097,130.078125 376.140625,138.046982 368.097168,144.373749 
	C358.598572,151.845108 348.661652,158.759262 338.228363,166.094894 
	C334.998169,167.796936 331.772186,169.506989 328.537109,171.199692 
	C308.141937,181.871094 286.721832,189.983795 264.548340,195.977463 
	C241.089432,202.318558 217.231018,205.440536 192.936981,201.937149 
	C184.907028,200.779190 176.744980,199.421738 170.447830,193.501465 
	C168.455734,191.628586 166.740128,189.461670 163.780807,186.196777 
	C160.203781,192.285278 157.097885,197.571869 153.309601,203.313416 
	C152.228973,212.782364 156.433640,216.749222 165.450500,214.129059 
	C170.859116,212.557404 175.482849,213.114990 180.070892,216.253860 
	C187.546661,221.368393 191.174011,221.252487 199.041595,215.953659 
	C200.184555,215.335419 201.327515,214.717194 203.388580,214.110184 
	C208.590027,214.227249 214.030304,213.428085 218.929337,214.705200 
	C224.419296,216.136353 229.490494,219.309891 234.614212,221.974655 
	C240.667664,225.122925 246.628143,227.761612 252.997208,222.995300 
	C252.997208,222.995300 252.964676,223.075134 253.629257,223.073761 
M214.309814,217.842514 
	C208.542252,216.073135 203.680923,218.500839 198.878601,221.182480 
	C191.810562,225.129272 184.908859,225.785568 178.158646,220.392456 
	C176.915604,219.399307 175.299698,218.872864 173.234436,217.804977 
	C169.788391,216.633438 168.400757,217.955536 169.281296,221.369064 
	C170.585663,226.425644 172.483597,231.138046 178.908020,233.006088 
	C192.358658,237.894638 206.304840,239.006409 221.196747,238.621902 
	C225.361664,238.336380 229.526596,238.050858 234.565552,237.842941 
	C255.565262,235.818665 275.628174,230.215469 295.714203,221.867676 
	C300.223236,219.735886 304.842957,217.807236 309.215881,215.425522 
	C316.072449,211.691101 322.866119,207.813217 329.442261,203.613754 
	C330.895416,202.685806 331.328949,200.161285 332.231964,198.371918 
	C330.644531,197.604721 329.124359,196.589508 327.451874,196.135880 
	C325.549713,195.619949 323.501923,195.667252 321.534180,195.361740 
	C315.741821,194.462448 310.721008,194.953949 305.829712,199.299713 
	C303.155945,201.675293 298.214966,202.710144 294.447357,202.416031 
	C283.206085,201.538498 275.264069,206.214828 268.648865,215.503220 
	C266.790680,217.377289 264.938080,219.256973 263.073303,221.124512 
	C253.192902,231.019485 245.234131,232.283859 232.373367,225.459793 
	C226.598541,223.016159 220.823700,220.572510 214.309814,217.842514 
M418.769897,227.033051 
	C424.823456,225.004303 426.694397,222.593842 423.924988,217.194489 
	C421.304993,212.086411 417.033081,207.724106 413.022675,203.472397 
	C410.932770,201.256729 408.490112,202.390717 406.458405,205.383804 
	C396.112183,212.910568 386.034973,220.849335 375.335510,227.835098 
	C366.611420,233.531082 357.143311,238.087463 347.289948,243.194336 
	C321.243683,255.170013 294.255066,264.392334 266.143799,270.022888 
	C242.090271,274.840698 217.809448,277.489960 192.402725,274.842957 
	C191.575027,275.082214 190.227142,275.087646 189.998535,275.596222 
	C187.089844,282.066925 185.592453,288.887604 187.314209,295.861816 
	C188.298874,299.850372 191.558212,301.776184 195.771011,300.721222 
	C197.959641,300.173096 199.981247,298.958038 202.793137,297.954620 
	C213.345993,293.999786 223.898849,290.044983 235.394455,286.314606 
	C243.675308,285.604401 251.943817,284.642548 260.239563,284.235352 
	C278.707642,283.328766 296.589447,287.198059 314.423004,291.346405 
	C320.945557,292.863617 327.285919,292.366028 333.863312,288.835236 
	C337.635162,284.629639 341.407013,280.424042 345.822113,275.994171 
	C364.972656,252.411148 388.485443,235.251923 418.769897,227.033051 
M404.664581,200.866165 
	C405.632141,198.656418 407.628326,196.321762 407.377899,194.259949 
	C406.568085,187.592453 405.385834,180.888290 403.445953,174.470642 
	C402.278412,170.608032 399.435913,167.251709 396.728546,162.608841 
	C394.860260,165.685028 393.860474,167.331223 392.292358,169.302704 
	C383.063751,179.059540 372.348633,186.884766 360.354584,192.792007 
	C348.081573,198.836609 335.258179,203.695221 324.186340,212.118576 
	C318.967438,216.089066 312.764404,218.765976 306.324951,222.237030 
	C266.614014,239.511093 225.853302,249.037842 181.928391,238.618195 
	C180.225494,238.102325 178.522598,237.586472 176.217636,236.888199 
	C175.660660,245.526978 177.534302,253.039902 180.722107,260.445465 
	C183.438965,266.757019 187.797852,270.300629 195.652786,270.812531 
	C208.133682,270.777557 220.700867,271.671936 233.078354,270.522949 
	C263.042542,267.741425 292.111603,260.562927 320.203308,249.745865 
	C329.019379,246.351120 337.487183,242.052063 346.842102,238.062973 
	C352.920715,235.009674 359.389954,232.540131 364.999725,228.786179 
	C378.228394,219.933838 391.047546,210.469513 404.664581,200.866165 
M337.242401,292.000763 
	C329.843384,296.265106 321.829071,297.004395 313.669464,295.474396 
	C297.872681,292.512360 282.304779,288.453491 266.006561,288.513306 
	C247.734009,288.580383 229.913925,290.391846 212.367889,298.262451 
	C209.009827,299.049866 207.832718,300.803650 209.970261,303.892609 
	C213.073166,308.376556 215.794174,313.221466 219.445129,317.210358 
	C228.507553,327.111572 240.361191,332.205566 253.182312,335.259277 
	C270.916016,339.483063 288.725189,339.413208 307.322998,336.115448 
	C313.177826,334.651215 319.032654,333.186981 325.631012,331.832520 
	C348.368378,324.958710 369.019379,314.269867 386.574799,298.086548 
	C399.289185,286.365936 409.215820,272.821289 412.466797,255.374252 
	C413.802795,248.204224 413.988373,240.987701 410.934296,233.892883 
	C393.444397,239.730377 378.457642,248.966019 365.709412,261.334015 
	C355.858002,270.891632 347.177063,281.655670 337.242401,292.000763 
M175.275558,191.869431 
	C175.517303,192.052155 175.781006,192.194061 176.447418,192.837585 
	C180.869919,194.237885 185.206390,196.080582 189.730118,196.960388 
	C207.455505,200.407684 225.239059,199.512314 242.869507,196.352600 
	C270.048187,191.481628 295.893188,182.353210 320.684814,170.330765 
	C338.410065,161.735062 355.123016,151.497910 369.180206,137.431580 
	C376.994446,129.612289 378.071411,120.148705 372.606567,110.606079 
	C365.412872,98.044563 355.390381,88.179817 343.420593,80.363770 
	C332.252350,73.071129 320.398468,67.087509 306.270996,64.759186 
	C286.409882,59.840107 266.727844,59.778126 247.314774,66.941689 
	C243.535400,68.336296 239.763062,69.750031 235.224258,70.978096 
	C233.658859,71.442871 231.963089,71.660736 230.547104,72.408455 
	C193.366806,92.041893 170.456848,121.793297 166.465759,164.400925 
	C165.544724,174.233627 165.372711,184.629364 175.275558,191.869431 
z"/>
<path fill="#6895D6" opacity="1.000000" stroke="none" 
	d="
M274.904999,404.033234 
	C262.321167,403.688141 249.660706,404.087402 237.173676,402.801910 
	C222.857529,401.328094 208.666824,398.512177 194.497787,395.870728 
	C192.453369,395.489624 190.834457,392.825958 189.018631,391.218597 
	C191.016022,389.803802 192.824448,387.680756 195.041489,387.089264 
	C209.250336,383.298553 223.830154,382.186188 238.447449,380.793823 
	C267.612274,378.015808 296.791260,379.113739 325.956451,379.167511 
	C341.559814,379.196289 357.213562,380.469940 372.741272,382.141541 
	C381.967865,383.134857 391.018799,385.891296 400.084595,388.116180 
	C401.561127,388.478516 402.704437,390.198792 404.001770,391.291382 
	C402.636780,392.759674 401.511108,395.085968 399.864655,395.545166 
	C393.355682,397.360626 386.745392,399.068634 380.058472,399.935669 
	C367.244812,401.597137 354.372131,402.913330 341.486572,403.869080 
	C334.035431,404.421722 326.511383,403.991333 318.083435,404.003113 
	C303.066162,404.012970 288.985596,404.023102 274.904999,404.033234 
z"/>
<path fill="#77C1F2" opacity="1.000000" stroke="none" 
	d="
M275.123505,404.416748 
	C288.985596,404.023102 303.066162,404.012970 317.620972,404.018005 
	C317.422333,404.357422 316.749176,404.964874 316.076599,404.964233 
	C302.498383,404.951447 288.920197,404.868835 275.123505,404.416748 
z"/>
<path fill="#FFA42D" opacity="1.000000" stroke="none" 
	d="
M235.987488,71.154953 
	C239.763062,69.750031 243.535400,68.336296 247.314774,66.941689 
	C266.727844,59.778126 286.409882,59.840107 306.719116,65.269493 
	C308.771881,66.945938 310.316345,68.207474 311.990723,69.263023 
	C324.725769,77.291519 335.090912,87.651672 342.994781,100.480644 
	C349.168274,110.500992 348.710144,121.395691 340.067230,129.147079 
	C330.456604,137.766373 320.555237,146.547318 309.438293,152.914505 
	C268.202698,176.532104 224.470917,192.555328 176.066681,192.295135 
	C175.781006,192.194061 175.517303,192.052155 175.138794,191.281647 
	C173.344055,184.190491 170.213531,177.673203 170.274948,171.186127 
	C170.594833,137.398163 185.298996,110.106834 210.586548,88.467659 
	C218.325150,81.845558 227.480774,76.879425 235.987488,71.154953 
M184.815353,165.582565 
	C189.422012,170.609970 195.310028,171.395248 202.987320,168.006165 
	C209.684784,165.049622 210.625687,159.523529 205.032318,154.813965 
	C200.857346,151.298691 196.404877,148.113373 192.083237,144.771744 
	C189.835083,143.033417 187.689423,142.926666 186.291977,145.645187 
	C183.132874,151.790833 180.292130,158.043182 184.815353,165.582565 
M219.998779,163.904831 
	C221.652557,163.907104 223.337448,164.113922 224.953522,163.868195 
	C228.117172,163.387131 231.025955,161.997864 230.790314,158.347214 
	C230.678635,156.616989 228.457214,153.439240 227.843613,153.588974 
	C224.521088,154.399826 221.020691,155.540939 218.337173,157.568359 
	C216.274170,159.126953 216.225861,162.022873 219.998779,163.904831 
z"/>
<path fill="#FEA42D" opacity="1.000000" stroke="none" 
	d="
M324.887482,331.722717 
	C319.032654,333.186981 313.177826,334.651215 306.451630,336.095581 
	C290.622284,337.406189 275.736267,337.448303 260.985992,334.010803 
	C239.768097,329.065979 222.255722,319.238892 213.117279,298.186401 
	C229.913925,290.391846 247.734009,288.580383 266.006561,288.513306 
	C282.304779,288.453491 297.872681,292.512360 313.669464,295.474396 
	C321.829071,297.004395 329.843384,296.265106 337.914917,292.148682 
	C345.995819,293.394714 351.313629,289.972870 355.711731,284.455170 
	C359.328400,279.917755 362.732056,275.147308 366.840302,271.099396 
	C368.268372,269.692352 371.815857,269.265472 373.877136,269.950470 
	C376.857391,270.940887 377.583038,273.989197 376.411102,277.061798 
	C375.525635,279.383331 374.638733,281.722839 373.508820,283.929565 
	C365.929169,298.732819 354.711548,310.337219 341.406342,320.051147 
	C335.961761,324.026184 330.397369,327.837128 324.887482,331.722717 
z"/>
<path fill="#C27342" opacity="1.000000" stroke="none" 
	d="
M176.257050,192.566360 
	C224.470917,192.555328 268.202698,176.532104 309.438293,152.914505 
	C320.555237,146.547318 330.456604,137.766373 340.067230,129.147079 
	C348.710144,121.395691 349.168274,110.500992 342.994781,100.480644 
	C335.090912,87.651672 324.725769,77.291519 311.990723,69.263023 
	C310.316345,68.207474 308.771881,66.945938 307.046967,65.472328 
	C320.398468,67.087509 332.252350,73.071129 343.420593,80.363770 
	C355.390381,88.179817 365.412872,98.044563 372.606567,110.606079 
	C378.071411,120.148705 376.994446,129.612289 369.180206,137.431580 
	C355.123016,151.497910 338.410065,161.735062 320.684814,170.330765 
	C295.893188,182.353210 270.048187,191.481628 242.869507,196.352600 
	C225.239059,199.512314 207.455505,200.407684 189.730118,196.960388 
	C185.206390,196.080582 180.869919,194.237885 176.257050,192.566360 
z"/>
<path fill="#A43440" opacity="1.000000" stroke="none" 
	d="
M346.114410,238.166931 
	C337.487183,242.052063 329.019379,246.351120 320.203308,249.745865 
	C292.111603,260.562927 263.042542,267.741425 233.078354,270.522949 
	C220.700867,271.671936 208.133682,270.777557 194.927948,270.537354 
	C184.951752,261.855896 183.265045,250.602341 182.444687,239.022675 
	C225.853302,249.037842 266.614014,239.511093 306.931793,222.293259 
	C308.489319,222.181259 309.513763,222.186203 310.379120,221.817612 
	C317.846161,218.637146 325.286346,215.393524 332.730835,212.160187 
	C337.727295,209.990051 341.708801,210.491791 342.999634,214.401917 
	C345.526001,222.054688 350.383972,229.571106 346.114410,238.166931 
M240.443787,254.010345 
	C239.801743,250.777206 237.659683,249.816849 234.606705,249.974747 
	C231.792603,250.120300 228.967880,250.067505 226.147720,250.087234 
	C216.477448,250.154816 214.841187,252.362717 218.796738,261.311707 
	C219.704178,263.364716 222.621506,265.006409 224.965942,265.809540 
	C227.196274,266.573578 229.887268,266.019196 232.375366,265.999847 
	C242.786743,265.919006 243.897186,264.413269 240.443787,254.010345 
M249.579788,248.952927 
	C248.238159,251.957779 249.753860,261.290619 252.357056,261.986816 
	C255.325699,262.780762 258.834412,262.245819 261.931885,261.527283 
	C263.168579,261.240417 264.688934,258.970886 264.789185,257.514984 
	C265.401642,248.621872 260.899048,245.060593 252.432846,247.433929 
	C251.644485,247.654953 250.923126,248.115021 249.579788,248.952927 
z"/>
<path fill="#FDBB02" opacity="1.000000" stroke="none" 
	d="
M234.451706,286.090149 
	C223.898849,290.044983 213.345993,293.999786 202.051514,297.952026 
	C194.862091,296.745941 191.939178,293.792175 191.877335,287.344543 
	C191.838272,283.269928 192.738342,279.186310 193.217178,275.106750 
	C217.809448,277.489960 242.090271,274.840698 266.143799,270.022888 
	C294.255066,264.392334 321.243683,255.170013 347.729401,243.519012 
	C352.639282,249.848785 351.260834,256.332672 349.525024,262.736786 
	C348.291199,267.288940 346.642456,271.728607 345.178894,276.218475 
	C341.407013,280.424042 337.635162,284.629639 333.057526,288.862579 
	C327.144196,288.389771 321.868073,288.542023 316.959137,287.273315 
	C298.463287,282.493073 279.745148,279.708496 260.683380,281.291962 
	C251.867462,282.024323 243.191254,284.438477 234.451706,286.090149 
z"/>
<path fill="#C27242" opacity="1.000000" stroke="none" 
	d="
M325.259247,331.777618 
	C330.397369,327.837128 335.961761,324.026184 341.406342,320.051147 
	C354.711548,310.337219 365.929169,298.732819 373.508820,283.929565 
	C374.638733,281.722839 375.525635,279.383331 376.411102,277.061798 
	C377.583038,273.989197 376.857391,270.940887 373.877136,269.950470 
	C371.815857,269.265472 368.268372,269.692352 366.840302,271.099396 
	C362.732056,275.147308 359.328400,279.917755 355.711731,284.455170 
	C351.313629,289.972870 345.995819,293.394714 338.281616,292.090027 
	C347.177063,281.655670 355.858002,270.891632 365.709412,261.334015 
	C378.457642,248.966019 393.444397,239.730377 410.934296,233.892883 
	C413.988373,240.987701 413.802795,248.204224 412.466797,255.374252 
	C409.215820,272.821289 399.289185,286.365936 386.574799,298.086548 
	C369.019379,314.269867 348.368378,324.958710 325.259247,331.777618 
z"/>
<path fill="#8CCC10" opacity="1.000000" stroke="none" 
	d="
M202.470474,214.098969 
	C201.327515,214.717194 200.184555,215.335419 198.325226,216.024872 
	C192.274796,217.637070 187.500305,216.775223 183.160706,213.134750 
	C179.772476,210.292419 175.921967,209.689743 171.478989,210.721100 
	C161.106995,213.128784 158.793396,211.938187 153.991989,202.858475 
	C157.097885,197.571869 160.203781,192.285278 163.780807,186.196777 
	C166.740128,189.461670 168.455734,191.628586 170.447830,193.501465 
	C176.744980,199.421738 184.907028,200.779190 192.936981,201.937149 
	C217.231018,205.440536 241.089432,202.318558 264.548340,195.977463 
	C286.721832,189.983795 308.141937,181.871094 328.537109,171.199692 
	C331.772186,169.506989 334.998169,167.796936 338.864929,166.214691 
	C340.475342,169.621567 342.316010,172.939255 342.201233,176.187881 
	C342.061096,180.153946 340.279144,184.062012 339.207214,187.995163 
	C339.207214,187.995163 339.017578,188.187790 338.502625,188.258301 
	C331.782562,188.182755 325.561218,187.717957 319.379486,188.032074 
	C316.513611,188.177719 313.724823,189.839737 310.901093,190.814301 
	C308.680847,192.240463 306.460571,193.666641 303.557190,195.230164 
	C301.233154,195.269913 299.530273,194.842224 297.963043,195.136658 
	C293.266357,196.019058 288.622711,197.183685 283.958344,198.238174 
	C275.900024,201.355865 269.728394,206.867691 264.243622,213.387802 
	C261.708130,216.401886 258.660858,218.985474 255.220734,221.947571 
	C254.052109,222.445648 253.508392,222.760391 252.964691,223.075134 
	C252.964676,223.075134 252.997208,222.995300 252.616028,222.918411 
	C246.839355,221.098190 241.371628,219.547562 236.067734,217.559784 
	C230.236404,215.374329 224.714859,212.227631 218.763947,210.534500 
	C213.043716,208.906982 207.298340,210.144241 202.470474,214.098969 
z"/>
<path fill="#832550" opacity="1.000000" stroke="none" 
	d="
M346.478271,238.114960 
	C350.383972,229.571106 345.526001,222.054688 342.999634,214.401917 
	C341.708801,210.491791 337.727295,209.990051 332.730835,212.160187 
	C325.286346,215.393524 317.846161,218.637146 310.379120,221.817612 
	C309.513763,222.186203 308.489319,222.181259 307.272949,222.189270 
	C312.764404,218.765976 318.967438,216.089066 324.186340,212.118576 
	C335.258179,203.695221 348.081573,198.836609 360.354584,192.792007 
	C372.348633,186.884766 383.063751,179.059540 392.932495,169.204620 
	C394.993011,170.611710 396.763367,171.913818 397.774414,173.656448 
	C402.716736,182.174866 404.074463,191.569519 404.032349,201.252747 
	C391.047546,210.469513 378.228394,219.933838 364.999725,228.786179 
	C359.389954,232.540131 352.920715,235.009674 346.478271,238.114960 
z"/>
<path fill="#C18325" opacity="1.000000" stroke="none" 
	d="
M345.500488,276.106323 
	C346.642456,271.728607 348.291199,267.288940 349.525024,262.736786 
	C351.260834,256.332672 352.639282,249.848785 348.086975,243.496414 
	C357.143311,238.087463 366.611420,233.531082 375.335510,227.835098 
	C386.034973,220.849335 396.112183,212.910568 406.979187,205.433197 
	C410.395966,207.944977 413.569000,210.152634 416.122559,212.929840 
	C419.881500,217.018082 421.396973,221.747086 418.022644,226.964050 
	C388.485443,235.251923 364.972656,252.411148 345.500488,276.106323 
z"/>
<path fill="#728E2F" opacity="1.000000" stroke="none" 
	d="
M339.530701,187.953217 
	C340.279144,184.062012 342.061096,180.153946 342.201233,176.187881 
	C342.316010,172.939255 340.475342,169.621567 339.208130,166.124741 
	C348.661652,158.759262 358.598572,151.845108 368.097168,144.373749 
	C376.140625,138.046982 381.643097,130.078125 380.061340,119.062813 
	C379.664093,116.296417 378.700623,113.611328 378.289734,110.513718 
	C387.533661,112.071854 393.605042,117.140755 396.037109,126.171722 
	C394.004028,127.816437 392.161896,129.812271 389.902557,131.041000 
	C382.688873,134.964081 379.494812,140.847992 380.012848,149.004608 
	C380.537292,157.262314 378.848694,158.948532 370.564606,159.014816 
	C369.402374,159.024109 368.239899,158.999420 367.077545,159.000977 
	C357.553802,159.013641 354.081573,161.908142 350.131714,170.653732 
	C347.393402,176.716766 343.327118,182.180008 339.530701,187.953217 
z"/>
<path fill="#FB1E03" opacity="1.000000" stroke="none" 
	d="
M232.799026,225.939804 
	C245.234131,232.283859 253.192902,231.019485 263.073303,221.124512 
	C264.938080,219.256973 266.790680,217.377289 269.289612,215.290894 
	C274.662109,213.219727 279.297852,211.042435 284.149048,209.579834 
	C290.726685,207.596741 294.785645,210.769867 295.037109,217.574493 
	C295.091766,219.054169 295.024017,220.538361 295.012665,222.020462 
	C275.628174,230.215469 255.565262,235.818665 234.189392,237.378754 
	C233.475174,233.256302 233.137100,229.598053 232.799026,225.939804 
z"/>
<path fill="#C11525" opacity="1.000000" stroke="none" 
	d="
M295.363434,221.944061 
	C295.024017,220.538361 295.091766,219.054169 295.037109,217.574493 
	C294.785645,210.769867 290.726685,207.596741 284.149048,209.579834 
	C279.297852,211.042435 274.662109,213.219727 269.567383,215.100586 
	C275.264069,206.214828 283.206085,201.538498 294.447357,202.416031 
	C298.214966,202.710144 303.155945,201.675293 305.829712,199.299713 
	C310.721008,194.953949 315.741821,194.462448 321.534180,195.361740 
	C323.501923,195.667252 325.549713,195.619949 327.451874,196.135880 
	C329.124359,196.589508 330.644531,197.604721 332.231964,198.371918 
	C331.328949,200.161285 330.895416,202.685806 329.442261,203.613754 
	C322.866119,207.813217 316.072449,211.691101 309.215881,215.425522 
	C304.842957,217.807236 300.223236,219.735886 295.363434,221.944061 
z"/>
<path fill="#FB1E03" opacity="1.000000" stroke="none" 
	d="
M220.468689,238.459167 
	C206.304840,239.006409 192.358658,237.894638 178.524261,232.554291 
	C176.712296,227.445328 175.284103,222.788162 173.855896,218.131012 
	C175.299698,218.872864 176.915604,219.399307 178.158646,220.392456 
	C184.908859,225.785568 191.810562,225.129272 198.878601,221.182480 
	C203.680923,218.500839 208.542252,216.073135 214.741089,218.364563 
	C216.937805,225.410797 218.703247,231.934982 220.468689,238.459167 
z"/>
<path fill="#F6D0A5" opacity="1.000000" stroke="none" 
	d="
M235.605865,71.066528 
	C227.480774,76.879425 218.325150,81.845558 210.586548,88.467659 
	C185.298996,110.106834 170.594833,137.398163 170.274948,171.186127 
	C170.213531,177.673203 173.344055,184.190491 175.022476,191.088715 
	C165.372711,184.629364 165.544724,174.233627 166.465759,164.400925 
	C170.456848,121.793297 193.366806,92.041893 230.547104,72.408455 
	C231.963089,71.660736 233.658859,71.442871 235.605865,71.066528 
z"/>
<path fill="#F8D2A6" opacity="1.000000" stroke="none" 
	d="
M212.742584,298.224426 
	C222.255722,319.238892 239.768097,329.065979 260.985992,334.010803 
	C275.736267,337.448303 290.622284,337.406189 306.077026,336.043030 
	C288.725189,339.413208 270.916016,339.483063 253.182312,335.259277 
	C240.361191,332.205566 228.507553,327.111572 219.445129,317.210358 
	C215.794174,313.221466 213.073166,308.376556 209.970261,303.892609 
	C207.832718,300.803650 209.009827,299.049866 212.742584,298.224426 
z"/>
<path fill="#F8DB93" opacity="1.000000" stroke="none" 
	d="
M234.923080,286.202393 
	C243.191254,284.438477 251.867462,282.024323 260.683380,281.291962 
	C279.745148,279.708496 298.463287,282.493073 316.959137,287.273315 
	C321.868073,288.542023 327.144196,288.389771 332.729309,288.906281 
	C327.285919,292.366028 320.945557,292.863617 314.423004,291.346405 
	C296.589447,287.198059 278.707642,283.328766 260.239563,284.235352 
	C251.943817,284.642548 243.675308,285.604401 234.923080,286.202393 
z"/>
<path fill="#FC5440" opacity="1.000000" stroke="none" 
	d="
M220.832718,238.540527 
	C218.703247,231.934982 216.937805,225.410797 215.110626,218.507751 
	C220.823700,220.572510 226.598541,223.016159 232.586197,225.699799 
	C233.137100,229.598053 233.475174,233.256302 233.752380,237.339951 
	C229.526596,238.050858 225.361664,238.336380 220.832718,238.540527 
z"/>
<path fill="#FC5440" opacity="1.000000" stroke="none" 
	d="
M357.260284,166.995819 
	C360.213989,162.413071 364.861053,163.421997 369.708496,163.828644 
	C371.484619,169.223999 372.742981,174.173615 374.001312,179.123260 
	C371.046844,181.088821 368.092377,183.054382 364.589233,184.762253 
	C361.780457,178.668320 359.520355,172.832077 357.260284,166.995819 
z"/>
<path fill="#D5A7AE" opacity="1.000000" stroke="none" 
	d="
M182.186539,238.820435 
	C183.265045,250.602341 184.951752,261.855896 194.447723,270.443909 
	C187.797852,270.300629 183.438965,266.757019 180.722107,260.445465 
	C177.534302,253.039902 175.660660,245.526978 176.217636,236.888199 
	C178.522598,237.586472 180.225494,238.102325 182.186539,238.820435 
z"/>
<path fill="#C11525" opacity="1.000000" stroke="none" 
	d="
M379.815002,161.805313 
	C384.082489,158.593063 385.357544,154.431290 384.544373,149.159424 
	C384.164337,146.695435 385.080444,144.031540 385.979431,141.466141 
	C388.376648,148.179276 390.203552,154.884521 392.030457,161.589767 
	C389.202179,164.933136 386.373871,168.276505 383.244629,171.388382 
	C381.900757,168.039703 380.857880,164.922501 379.815002,161.805313 
z"/>
<path fill="#CAE298" opacity="1.000000" stroke="none" 
	d="
M202.929535,214.104584 
	C207.298340,210.144241 213.043716,208.906982 218.763947,210.534500 
	C224.714859,212.227631 230.236404,215.374329 236.067734,217.559784 
	C241.371628,219.547562 246.839355,221.098190 252.655975,222.934631 
	C246.628143,227.761612 240.667664,225.122925 234.614212,221.974655 
	C229.490494,219.309891 224.419296,216.136353 218.929337,214.705200 
	C214.030304,213.428085 208.590027,214.227249 202.929535,214.104584 
z"/>
<path fill="#CAE298" opacity="1.000000" stroke="none" 
	d="
M153.650787,203.085938 
	C158.793396,211.938187 161.106995,213.128784 171.478989,210.721100 
	C175.921967,209.689743 179.772476,210.292419 183.160706,213.134750 
	C187.500305,216.775223 192.274796,217.637070 198.041565,216.068726 
	C191.174011,221.252487 187.546661,221.368393 180.070892,216.253860 
	C175.482849,213.114990 170.859116,212.557404 165.450500,214.129059 
	C156.433640,216.749222 152.228973,212.782364 153.650787,203.085938 
z"/>
<path fill="#A43440" opacity="1.000000" stroke="none" 
	d="
M404.348450,201.059448 
	C404.074463,191.569519 402.716736,182.174866 397.774414,173.656448 
	C396.763367,171.913818 394.993011,170.611710 393.216675,169.041977 
	C393.860474,167.331223 394.860260,165.685028 396.728546,162.608841 
	C399.435913,167.251709 402.278412,170.608032 403.445953,174.470642 
	C405.385834,180.888290 406.568085,187.592453 407.377899,194.259949 
	C407.628326,196.321762 405.632141,198.656418 404.348450,201.059448 
z"/>
<path fill="#FB1E03" opacity="1.000000" stroke="none" 
	d="
M357.011353,167.264221 
	C359.520355,172.832077 361.780457,178.668320 364.260864,184.813202 
	C361.567841,186.763870 358.654449,188.405914 355.246216,189.731842 
	C353.524384,186.613037 352.297424,183.810379 351.070496,181.007706 
	C352.967804,176.516022 354.865112,172.024338 357.011353,167.264221 
z"/>
<path fill="#F8DB93" opacity="1.000000" stroke="none" 
	d="
M192.809952,274.974854 
	C192.738342,279.186310 191.838272,283.269928 191.877335,287.344543 
	C191.939178,293.792175 194.862091,296.745941 201.694107,297.996857 
	C199.981247,298.958038 197.959641,300.173096 195.771011,300.721222 
	C191.558212,301.776184 188.298874,299.850372 187.314209,295.861816 
	C185.592453,288.887604 187.089844,282.066925 189.998535,275.596222 
	C190.227142,275.087646 191.575027,275.082214 192.809952,274.974854 
z"/>
<path fill="#F5B306" opacity="1.000000" stroke="none" 
	d="
M418.396271,226.998550 
	C421.396973,221.747086 419.881500,217.018082 416.122559,212.929840 
	C413.569000,210.152634 410.395966,207.944977 407.260986,205.255615 
	C408.490112,202.390717 410.932770,201.256729 413.022675,203.472397 
	C417.033081,207.724106 421.304993,212.086411 423.924988,217.194489 
	C426.694397,222.593842 424.823456,225.004303 418.396271,226.998550 
z"/>
<path fill="#FB1E03" opacity="1.000000" stroke="none" 
	d="
M379.426453,161.905334 
	C380.857880,164.922501 381.900757,168.039703 382.955444,171.550995 
	C380.193024,174.257370 377.418762,176.569656 374.322937,179.002594 
	C372.742981,174.173615 371.484619,169.223999 370.123779,163.945984 
	C373.026825,163.080170 376.032379,162.542755 379.426453,161.905334 
z"/>
<path fill="#C11525" opacity="1.000000" stroke="none" 
	d="
M350.776093,181.182800 
	C352.297424,183.810379 353.524384,186.613037 354.884827,189.760300 
	C349.799103,192.498077 344.607544,194.956085 339.327515,197.206573 
	C338.627472,197.504959 337.477417,196.747528 336.535767,196.479065 
	C337.023987,195.755157 337.421478,194.944901 338.015015,194.321198 
	C342.147827,189.978455 346.321289,185.674377 350.776093,181.182800 
z"/>
<path fill="#8CCC10" opacity="1.000000" stroke="none" 
	d="
M396.304993,125.875107 
	C393.605042,117.140755 387.533661,112.071854 378.200989,110.137779 
	C377.294586,109.506584 376.681030,108.927666 376.273285,108.228691 
	C375.973053,107.714027 375.941864,107.042397 375.771179,106.362511 
	C390.312653,108.301880 397.857056,115.333664 396.304993,125.875107 
z"/>
<path fill="#CAE298" opacity="1.000000" stroke="none" 
	d="
M311.373169,190.841736 
	C313.724823,189.839737 316.513611,188.177719 319.379486,188.032074 
	C325.561218,187.717957 331.782562,188.182755 338.367584,188.252502 
	C335.198120,191.838211 330.755066,192.082535 326.042847,191.679581 
	C321.321747,191.275894 316.578674,191.128738 311.373169,190.841736 
z"/>
<path fill="#FB1E03" opacity="1.000000" stroke="none" 
	d="
M392.316437,161.350327 
	C390.203552,154.884521 388.376648,148.179276 386.279602,141.237122 
	C386.640137,139.965347 387.270782,138.930466 387.901398,137.895584 
	C388.346680,137.937119 388.791962,137.978638 389.237213,138.020172 
	C390.984924,145.601227 396.809418,152.427841 392.316437,161.350327 
z"/>
<path fill="#F69992" opacity="1.000000" stroke="none" 
	d="
M173.545166,217.967987 
	C175.284103,222.788162 176.712296,227.445328 178.159775,232.471939 
	C172.483597,231.138046 170.585663,226.425644 169.281296,221.369064 
	C168.400757,217.955536 169.788391,216.633438 173.545166,217.967987 
z"/>
<path fill="#CAE298" opacity="1.000000" stroke="none" 
	d="
M284.420044,198.186859 
	C288.622711,197.183685 293.266357,196.019058 297.963043,195.136658 
	C299.530273,194.842224 301.233154,195.269913 303.184998,195.267517 
	C301.225372,196.277847 299.033997,198.068802 296.666321,198.344254 
	C292.798553,198.794174 288.815887,198.256531 284.420044,198.186859 
z"/>
<path fill="#CAE298" opacity="1.000000" stroke="none" 
	d="
M253.296967,223.074463 
	C253.508392,222.760391 254.052109,222.445648 254.925262,222.082916 
	C254.712906,222.381210 254.171082,222.727493 253.296967,223.074463 
z"/>
<path fill="#FFB655" opacity="1.000000" stroke="none" 
	d="
M184.629547,165.252167 
	C180.292130,158.043182 183.132874,151.790833 186.291977,145.645187 
	C187.689423,142.926666 189.835083,143.033417 192.083237,144.771744 
	C196.404877,148.113373 200.857346,151.298691 205.032318,154.813965 
	C210.625687,159.523529 209.684784,165.049622 202.987320,168.006165 
	C195.310028,171.395248 189.422012,170.609970 184.629547,165.252167 
z"/>
<path fill="#FFB655" opacity="1.000000" stroke="none" 
	d="
M219.601028,163.806610 
	C216.225861,162.022873 216.274170,159.126953 218.337173,157.568359 
	C221.020691,155.540939 224.521088,154.399826 227.843613,153.588974 
	C228.457214,153.439240 230.678635,156.616989 230.790314,158.347214 
	C231.025955,161.997864 228.117172,163.387131 224.953522,163.868195 
	C223.337448,164.113922 221.652557,163.907104 219.601028,163.806610 
z"/>
<path fill="#BB666E" opacity="1.000000" stroke="none" 
	d="
M240.574936,254.382599 
	C243.897186,264.413269 242.786743,265.919006 232.375366,265.999847 
	C229.887268,266.019196 227.196274,266.573578 224.965942,265.809540 
	C222.621506,265.006409 219.704178,263.364716 218.796738,261.311707 
	C214.841187,252.362717 216.477448,250.154816 226.147720,250.087234 
	C228.967880,250.067505 231.792603,250.120300 234.606705,249.974747 
	C237.659683,249.816849 239.801743,250.777206 240.574936,254.382599 
z"/>
<path fill="#BB666E" opacity="1.000000" stroke="none" 
	d="
M249.875229,248.708511 
	C250.923126,248.115021 251.644485,247.654953 252.432846,247.433929 
	C260.899048,245.060593 265.401642,248.621872 264.789185,257.514984 
	C264.688934,258.970886 263.168579,261.240417 261.931885,261.527283 
	C258.834412,262.245819 255.325699,262.780762 252.357056,261.986816 
	C249.753860,261.290619 248.238159,251.957779 249.875229,248.708511 
z"/>
</svg>