<?xml version="1.0" standalone="no"?>
<!DOCTYPE svg PUBLIC "-//W3C//DTD SVG 20010904//EN"
 "http://www.w3.org/TR/2001/REC-SVG-20010904/DTD/svg10.dtd">
<svg version="1.0" xmlns="http://www.w3.org/2000/svg"
 width="500.000000pt" height="500.000000pt" viewBox="0 0 500.000000 500.000000"
 preserveAspectRatio="xMidYMid meet">

<g transform="translate(0.000000,500.000000) scale(0.100000,-0.100000)"
fill="#000000" stroke="none">
<path d="M2571 4079 c-136 -84 -262 -205 -339 -326 -15 -24 -30 -43 -34 -43
-5 0 -8 26 -8 57 l0 57 -31 -30 c-46 -44 -125 -153 -158 -220 -43 -87 -63
-176 -66 -288 -1 -66 -6 -101 -13 -104 -7 -2 -47 32 -90 75 -117 119 -162 219
-174 383 l-3 35 -70 -88 c-167 -210 -234 -416 -208 -639 19 -158 65 -271 175
-433 39 -58 68 -108 65 -111 -19 -20 -168 121 -205 192 -23 45 -88 108 -122
119 -12 4 -23 5 -24 3 -2 -1 0 -78 3 -169 7 -164 7 -167 41 -233 31 -62 135
-176 161 -176 5 0 9 -4 9 -10 0 -16 -38 -11 -81 11 -23 11 -42 19 -44 17 -9
-9 32 -72 70 -109 l43 -42 -25 -56 c-14 -31 -49 -119 -79 -195 -48 -125 -59
-144 -103 -185 -38 -36 -51 -55 -55 -86 -4 -22 -13 -77 -21 -122 -18 -97 -19
-132 -4 -170 6 -15 19 -59 29 -98 10 -38 29 -95 43 -126 20 -47 32 -60 69 -78
168 -81 370 62 572 404 112 188 130 215 146 215 5 0 17 -25 26 -55 25 -78 47
-99 97 -92 49 7 80 36 79 74 0 15 -19 75 -42 133 -30 77 -39 113 -35 137 8 45
-23 174 -47 195 -18 16 -18 19 -4 34 9 8 16 21 16 29 0 12 -48 59 -84 80 -14
9 -15 19 -7 75 7 56 40 199 47 208 4 6 114 -60 114 -68 0 -5 -15 -18 -33 -29
-28 -17 -57 -56 -57 -76 0 -3 16 -11 36 -20 36 -15 36 -15 32 -71 l-3 -56 39
-13 c60 -21 250 -38 345 -30 48 3 121 14 165 23 l79 16 -6 62 c-5 48 -3 65 8
74 19 16 19 34 -1 50 -8 8 -20 22 -25 32 -9 16 -3 22 43 43 29 14 58 25 63 25
10 0 34 -100 50 -205 5 -37 3 -43 -30 -75 -38 -37 -44 -64 -18 -79 16 -9 16
-11 -3 -28 -25 -21 -60 -159 -50 -196 7 -29 -20 -117 -42 -134 -9 -7 -13 -13
-9 -13 3 0 -3 -26 -14 -57 -24 -70 -19 -97 24 -123 67 -41 111 -17 142 78 20
64 39 67 66 10 11 -24 44 -81 74 -128 30 -47 75 -119 101 -160 65 -103 201
-237 283 -278 81 -40 153 -43 221 -9 39 20 48 32 72 88 14 35 31 89 38 119 6
30 18 70 26 88 20 43 20 69 1 172 -9 47 -19 103 -22 125 -5 31 -18 50 -57 87
-46 42 -55 59 -108 195 -31 81 -67 167 -79 191 l-22 43 45 61 c25 34 45 63 43
64 -2 2 -29 -4 -61 -12 -32 -8 -60 -13 -63 -10 -3 3 21 22 53 42 98 61 160
120 188 176 28 56 31 88 19 247 -6 85 -7 90 -23 76 -9 -8 -34 -48 -56 -87 -41
-76 -143 -192 -151 -171 -2 6 7 34 22 62 146 289 125 601 -57 831 l-27 34 -7
-30 c-11 -46 -46 -124 -56 -124 -5 0 -18 21 -28 46 -36 83 -94 157 -238 307
-96 99 -150 163 -164 194 -20 46 -20 46 -34 22 -7 -13 -13 -43 -14 -66 0 -24
-4 -43 -9 -43 -5 0 -42 30 -81 66 -40 36 -93 75 -117 86 -50 22 -63 45 -91
156 -14 60 -14 70 0 126 9 34 15 62 15 62 -1 1 -31 -16 -66 -37z m110 -350
c21 -7 75 -43 120 -81 44 -37 102 -82 127 -99 47 -31 147 -147 169 -197 17
-38 16 -102 -3 -137 -16 -31 -31 -105 -41 -212 -4 -43 -12 -68 -24 -79 -11
-10 -21 -15 -23 -13 -25 27 -103 139 -98 139 5 0 23 -11 42 -25 19 -14 36 -25
39 -25 13 0 -46 51 -75 65 -32 15 -33 17 -28 59 9 65 -9 63 -41 -4 -40 -84
-53 -85 -135 -6 -77 74 -140 108 -249 132 -72 16 -180 15 -239 -2 -23 -7 -23
-6 -20 77 l3 84 37 12 c80 26 205 38 275 26 87 -15 196 -70 256 -129 66 -65
59 -38 -9 35 -68 73 -150 117 -247 130 -92 13 -249 -3 -298 -31 l-37 -20 -31
23 c-17 13 -38 34 -47 47 -14 21 -14 26 3 60 17 36 19 37 69 35 l51 -2 17 54
c10 31 25 59 36 65 42 22 343 36 401 19z m-501 -324 c0 -20 -14 -19 -32 3 -32
37 -32 44 1 28 17 -9 31 -23 31 -31z m-20 -59 c-14 -14 -35 9 -55 59 l-17 40
41 -45 c27 -29 38 -47 31 -54z m-44 -69 c35 -32 35 -34 38 -127 2 -52 -1 -117
-7 -145 -6 -27 -12 -77 -13 -110 -1 -46 -6 -61 -18 -63 -23 -5 -20 -26 9 -61
20 -23 28 -49 37 -115 11 -84 11 -86 -12 -111 -13 -14 -30 -25 -38 -25 -8 0
-32 -18 -53 -40 -32 -34 -46 -41 -101 -50 -95 -15 -91 -17 -121 63 -15 41 -27
81 -27 91 0 9 16 48 35 86 19 38 35 77 35 87 0 10 -12 51 -26 91 -15 40 -24
75 -21 78 9 10 77 -16 166 -62 46 -25 86 -43 87 -41 2 2 -4 37 -15 78 -27 108
-34 203 -21 297 11 83 18 112 27 112 2 0 20 -15 39 -33z m1077 -104 c35 -73
67 -187 67 -235 0 -20 -18 -87 -41 -150 -36 -101 -40 -119 -34 -170 6 -49 3
-68 -21 -128 -23 -60 -31 -70 -51 -70 -39 0 -62 18 -84 65 -13 28 -35 53 -58
67 -20 12 -52 36 -72 54 -20 17 -50 35 -67 39 -46 10 -57 28 -43 74 6 21 11
50 11 64 0 35 14 42 90 42 61 0 71 3 132 43 l67 44 6 56 c11 108 48 262 64
262 4 0 20 -26 34 -57z m-714 26 c24 -5 67 -21 96 -35 45 -21 57 -32 80 -80
21 -44 26 -64 21 -94 -5 -33 -3 -41 14 -50 16 -9 22 -6 35 19 28 56 87 78 119
45 9 -8 16 -23 16 -32 0 -13 -3 -12 -16 6 -8 12 -22 22 -30 22 -19 0 -18 -16
1 -24 8 -3 15 -17 15 -32 0 -19 4 -25 15 -20 27 10 16 -22 -17 -49 -18 -14
-50 -40 -72 -58 l-38 -32 7 -110 7 -111 -39 -50 c-47 -59 -202 -204 -218 -204
-27 0 -105 114 -105 155 0 9 11 27 25 41 14 14 25 27 25 29 0 3 -18 5 -40 5
-73 0 -130 37 -130 84 0 8 20 24 46 35 49 22 51 41 3 41 -16 0 -29 3 -29 8 0
7 71 25 170 41 63 11 79 20 95 52 8 15 15 29 15 31 0 2 -18 2 -41 0 -37 -4
-44 0 -84 42 -49 51 -60 55 -68 27 -4 -17 -10 -18 -51 -10 -26 5 -51 11 -57
14 -5 3 7 37 26 75 19 38 35 77 35 85 0 9 -16 31 -36 49 -31 29 -35 36 -25 54
6 12 19 26 29 31 22 13 144 13 201 0z m-764 -66 c4 -10 36 -99 71 -197 l65
-179 -36 -75 c-19 -41 -35 -87 -35 -103 0 -17 20 -81 45 -143 25 -63 45 -119
45 -124 0 -6 4 -12 8 -14 10 -3 92 -209 92 -230 0 -7 -15 -18 -33 -24 l-34
-10 -38 115 c-21 64 -39 123 -39 131 -2 37 -89 270 -107 286 -11 11 -53 35
-92 54 l-72 35 -67 185 c-38 101 -68 190 -68 196 0 6 19 18 43 27 23 8 85 31
137 50 114 42 106 41 115 20z m1232 -195 c-7 -4 -2 -11 16 -17 30 -12 35 -26
11 -35 -19 -7 -69 -8 -76 -1 -10 10 5 55 18 55 10 0 8 6 -6 20 -11 11 -20 24
-20 29 0 5 -3 18 -6 28 -3 10 13 -2 35 -27 27 -30 36 -47 28 -52z m-722 40
c-9 -28 -32 -54 -41 -46 -3 4 -3 20 1 37 5 22 12 31 26 31 16 0 19 -4 14 -22z
m1221 -90 c-13 -35 -41 -110 -61 -167 -21 -57 -47 -111 -58 -120 -54 -43 -66
-64 -107 -187 -24 -71 -44 -138 -45 -149 -2 -11 -19 -68 -40 -126 l-37 -105
-34 10 c-19 6 -34 16 -34 23 0 14 78 213 90 228 20 26 103 254 102 280 -1 17
-2 48 -3 70 -1 27 14 82 46 168 26 70 49 126 51 124 2 -2 -9 -47 -25 -100 -41
-131 -45 -158 -28 -181 22 -30 59 -14 84 36 20 40 84 186 104 236 5 12 11 22
13 22 3 0 -5 -28 -18 -62z m41 -85 c23 -113 -2 -284 -65 -446 l-30 -77 32 0
c17 0 46 4 64 9 17 5 32 6 32 1 0 -13 -48 -67 -79 -89 l-28 -20 -47 69 c-26
38 -64 84 -83 101 l-36 31 24 75 c16 51 31 81 49 94 49 36 58 51 101 169 23
66 46 120 50 120 5 0 12 -17 16 -37z m-127 5 c0 -24 -62 -143 -68 -129 -8 23
18 120 36 131 23 13 32 12 32 -2z m-995 -38 c4 -6 -12 -10 -40 -10 -28 0 -44
4 -40 10 3 6 21 10 40 10 19 0 37 -4 40 -10z m-678 -222 c12 -11 31 -46 41
-77 11 -31 23 -64 27 -73 5 -12 3 -18 -7 -18 -12 0 -99 121 -128 179 -12 23
-11 23 16 17 16 -4 39 -17 51 -28z m369 -183 c4 -8 3 -35 0 -59 -7 -43 -8 -44
-41 -41 -25 2 -35 -1 -38 -14 -3 -10 -5 -8 -6 7 -1 14 -5 20 -12 17 -6 -4 -8
-14 -4 -24 5 -12 3 -13 -5 -5 -7 7 -13 23 -13 37 -1 14 -4 24 -6 21 -2 -2 -10
8 -18 23 -7 14 -11 28 -9 31 4 4 73 14 134 21 7 0 15 -6 18 -14z m1008 -4 c3
-5 16 -7 27 -4 15 4 20 2 17 -7 -2 -8 -11 -15 -19 -18 -10 -2 -11 -1 -2 5 7 5
-3 9 -28 9 -26 1 -39 -3 -39 -12 0 -19 -20 -28 -33 -15 -22 22 -26 10 -10 -24
13 -27 19 -32 30 -24 7 6 13 18 13 25 0 8 5 14 11 14 5 0 7 5 4 10 -4 6 5 10
19 10 31 0 32 -12 7 -65 -15 -32 -20 -35 -20 -17 -1 12 -6 22 -12 22 -6 0 -9
-6 -6 -13 4 -10 -2 -13 -19 -9 -13 2 -27 8 -30 13 -3 5 -15 9 -28 9 -31 0 -37
9 -25 32 6 11 17 17 25 14 8 -3 13 -2 9 3 -3 5 7 19 21 30 27 21 78 28 88 12z
m-1425 -88 c6 -3 -40 -73 -48 -73 -8 0 -71 111 -71 124 0 4 90 -34 119 -51z
m143 -42 c-4 -10 -1 -12 8 -6 10 6 12 4 7 -8 -3 -9 -1 -17 5 -19 6 -2 9 -10 7
-17 -5 -13 -59 62 -59 82 0 7 -5 4 -10 -5 -7 -10 -7 -25 0 -42 7 -19 6 -24 -3
-20 -7 2 -13 19 -14 36 -2 23 5 39 25 59 l27 28 6 -37 c4 -20 4 -43 1 -51z
m1580 -74 c33 -44 56 -82 52 -89 -4 -6 -3 -8 4 -4 16 9 124 -187 115 -210 -4
-11 -3 -15 4 -11 10 7 37 -52 76 -170 l15 -43 -50 0 c-44 0 -49 2 -38 15 10
13 11 18 1 28 -10 9 -11 8 -6 -5 4 -10 3 -18 -3 -18 -15 0 -22 26 -22 78 -1
44 -1 46 -14 23 -13 -23 -13 -23 -19 16 -4 22 -14 46 -22 53 -8 7 -15 19 -15
27 0 8 -5 11 -11 7 -8 -5 -8 -1 0 14 8 15 7 23 -4 32 -8 7 -15 19 -15 26 0 8
-4 14 -9 14 -5 0 -12 16 -15 35 -6 28 -11 35 -30 35 -28 0 -51 24 -40 41 5 8
3 9 -6 4 -10 -6 -12 -4 -7 7 3 9 1 32 -5 51 -7 24 -7 40 0 53 9 15 11 16 12 3
0 -9 8 -23 18 -32 16 -15 18 -15 18 3 0 10 -5 16 -10 13 -5 -3 -6 -1 -2 5 3 5
-6 25 -21 42 l-26 32 -19 -24 -18 -23 12 32 c10 26 10 35 -1 45 -7 7 -11 9
-10 3 4 -11 -51 -98 -57 -92 -2 2 3 26 12 53 9 27 18 55 20 63 6 19 60 -32
136 -132z m-1671 49 c-16 -17 -19 -25 -9 -28 10 -4 11 -11 2 -34 -7 -19 -7
-37 -1 -51 6 -15 2 -35 -18 -79 -23 -50 -29 -56 -36 -39 -7 17 -8 17 -8 -7 -1
-16 -6 -28 -12 -28 -5 0 -7 -5 -4 -10 10 -16 -16 -42 -34 -35 -13 5 -14 4 -3
-6 15 -16 16 -33 0 -23 -7 5 -8 3 -3 -5 4 -8 -1 -18 -14 -27 -12 -9 -22 -27
-22 -42 -1 -17 -3 -21 -6 -9 -2 9 -9 17 -14 17 -6 0 -8 -10 -4 -22 4 -16 3
-19 -3 -9 -11 15 -27 -2 -17 -19 3 -5 -1 -32 -9 -59 -8 -27 -12 -52 -9 -55 3
-3 -17 -5 -45 -5 l-51 2 29 76 c50 135 71 185 108 256 47 89 190 281 201 269
2 -2 -6 -15 -18 -28z m73 -42 c9 -24 2 -26 -12 -4 -7 11 -8 20 -3 20 5 0 12
-7 15 -16z m306 -179 c46 -24 37 -37 -18 -29 -45 6 -50 4 -75 -25 -14 -17 -33
-31 -41 -31 -9 0 -16 -5 -16 -11 0 -7 10 -9 28 -5 15 4 52 10 82 13 48 4 58 2
75 -17 l20 -22 -37 7 c-26 5 -53 2 -88 -11 -53 -19 -69 -41 -22 -30 91 21 152
14 152 -19 0 -12 -4 -13 -25 -3 -19 9 -35 8 -67 -2 -24 -7 -47 -17 -52 -22
-17 -14 0 -18 36 -6 47 14 105 3 119 -23 13 -24 4 -38 -13 -21 -15 15 -53 16
-78 2 -16 -8 -18 -18 -13 -64 8 -77 -2 -121 -31 -134 -13 -6 -34 -29 -47 -51
-217 -366 -298 -465 -446 -538 -59 -29 -80 -35 -113 -30 -80 10 -113 53 -147
192 -14 57 -14 77 -3 151 14 97 27 115 99 138 57 18 101 28 101 23 0 -3 -18
-17 -41 -31 -22 -15 -39 -29 -37 -32 2 -2 42 11 89 29 46 19 148 55 227 82
149 50 202 84 202 129 0 33 -19 145 -36 213 l-16 63 59 65 c54 60 61 64 101
65 24 0 56 -7 72 -15z m1033 -50 l57 -63 -19 -82 c-11 -45 -23 -112 -27 -149
-10 -101 -2 -107 236 -190 107 -38 217 -78 244 -90 55 -24 49 -7 -11 30 -19
12 -32 23 -30 25 6 7 119 -26 148 -43 54 -32 70 -198 30 -323 -25 -81 -44
-108 -87 -126 -51 -21 -83 -17 -160 20 -131 63 -218 162 -384 440 -66 110 -95
149 -119 157 -20 7 -33 97 -20 138 16 46 -7 65 -69 57 -40 -5 -42 -4 -32 14
17 31 83 37 145 13 12 -4 16 -2 14 6 -7 20 -80 42 -116 36 -38 -7 -44 8 -12
26 21 11 67 8 132 -7 49 -11 28 11 -27 30 -35 12 -66 16 -87 12 l-32 -6 19 21
c16 18 26 20 74 15 30 -3 67 -9 83 -12 17 -4 27 -2 27 5 0 6 -8 11 -18 11 -10
0 -29 14 -41 31 -22 30 -26 31 -72 25 -30 -4 -49 -3 -49 3 0 19 54 40 100 40
43 0 48 -3 103 -64z m265 33 c1 -23 -2 -28 -8 -18 -12 19 -13 50 -2 50 5 0 9
-14 10 -32z m32 -59 c0 -6 -4 -7 -10 -4 -5 3 -10 11 -10 16 0 6 5 7 10 4 6 -3
10 -11 10 -16z m-1283 -221 c8 -11 76 -180 97 -241 7 -23 -27 -57 -59 -57 -48
0 -88 109 -79 218 7 78 10 92 22 92 5 0 14 -6 19 -12z m804 -74 c6 -65 3 -90
-14 -139 -11 -33 -25 -66 -30 -72 -14 -19 -51 -16 -78 6 l-23 19 48 123 c27
68 53 130 59 137 20 26 32 3 38 -74z m-1426 -44 c14 -6 -1 -9 -48 -8 -37 0
-70 5 -73 9 -7 12 95 10 121 -1z m2129 -2 c-4 -6 1 -8 13 -4 40 13 120 -66
111 -110 -2 -13 -7 -12 -25 5 -12 12 -27 21 -33 21 -5 0 -10 5 -10 11 0 5 5 7
10 4 6 -3 10 -4 10 -1 0 2 3 12 7 22 6 17 5 17 -17 1 -14 -9 -40 -16 -60 -16
-34 1 -34 2 8 8 23 4 48 13 55 21 10 10 8 12 -10 7 -12 -3 -42 2 -65 10 -24 8
-64 13 -90 11 -49 -3 -67 7 -25 15 49 8 127 5 121 -5z m-2274 -8 c-12 -8 -12
-10 5 -11 19 0 18 -1 -2 -11 -39 -19 -27 -33 25 -29 56 4 54 -4 -3 -12 -22 -3
-58 -15 -80 -26 -35 -17 -40 -17 -43 -4 -2 9 2 19 10 24 7 5 9 9 4 9 -14 0 36
51 59 60 28 12 43 12 25 0z"/>
<path d="M2359 3633 c-2 -21 -1 -54 2 -73 5 -25 7 -15 8 38 1 77 -5 96 -10 35z"/>
<path d="M2417 3663 c-11 -20 -16 -63 -8 -63 5 0 12 -10 14 -22 2 -13 5 3 6
35 1 54 -2 67 -12 50z"/>
<path d="M2570 3604 c-31 -63 -17 -68 14 -5 15 28 22 51 17 51 -5 0 -19 -20
-31 -46z"/>
<path d="M2711 3633 c-1 -6 -4 -20 -7 -30 -5 -17 -5 -17 6 0 6 10 9 23 6 30
-3 9 -5 9 -5 0z"/>
<path d="M2742 3600 c-18 -59 -26 -123 -13 -116 6 4 16 16 22 28 8 15 8 19 0
14 -14 -9 -14 12 0 52 6 17 9 37 7 44 -3 7 -10 -3 -16 -22z"/>
<path d="M2160 3561 c0 -11 50 -44 57 -38 5 6 -37 47 -49 47 -4 0 -8 -4 -8 -9z"/>
<path d="M2890 3480 c-36 -19 -111 -90 -95 -90 4 0 28 16 51 36 24 19 44 31
44 26 0 -5 -7 -15 -15 -22 -8 -7 -15 -18 -15 -24 1 -13 80 72 80 85 0 13 -10
11 -50 -11z"/>
<path d="M2546 3386 c50 -13 105 -31 122 -40 18 -9 32 -14 32 -11 0 17 -139
69 -189 72 -55 3 -54 2 35 -21z"/>
<path d="M2952 3291 c-23 -4 -48 -13 -55 -21 -10 -10 -6 -11 23 -5 19 4 58 11
85 15 28 4 42 8 33 9 -9 0 -22 3 -30 5 -7 2 -32 0 -56 -3z"/>
<path d="M2951 3146 c12 -10 59 -15 59 -6 0 5 -14 10 -32 10 -17 0 -29 -2 -27
-4z"/>
<path d="M2900 3086 c0 -2 20 -11 45 -19 48 -17 62 -8 20 11 -25 12 -65 16
-65 8z"/>
<path d="M2379 3120 c-22 -13 -32 -55 -20 -79 8 -13 27 -20 71 -25 34 -4 68
-10 76 -13 19 -7 18 16 -3 39 -23 26 -10 32 27 13 40 -21 49 -12 24 22 -32 43
-133 68 -175 43z"/>
<path d="M2766 2919 c-8 -58 -1 -73 20 -44 30 41 30 95 1 95 -10 0 -17 -17
-21 -51z"/>
<path d="M2635 2672 c-27 -31 -70 -69 -95 -85 l-45 -29 43 5 c24 3 58 16 76
31 33 24 81 107 74 124 -1 5 -25 -16 -53 -46z"/>
<path d="M2581 2494 c-40 -58 -70 -108 -66 -112 9 -9 88 83 120 141 51 92 19
75 -54 -29z"/>
<path d="M1566 3051 c-7 -11 112 -350 129 -369 10 -11 14 -11 22 0 8 10 -5 57
-51 183 -34 94 -65 176 -69 183 -10 14 -24 16 -31 3z"/>
<path d="M1656 3052 c-4 -7 97 -299 108 -309 3 -3 12 -3 20 0 13 5 8 29 -33
144 -27 76 -52 146 -56 156 -7 17 -30 23 -39 9z"/>
<path d="M1490 2990 c0 -18 100 -294 111 -305 6 -5 13 -5 21 3 16 16 -90 305
-114 310 -10 2 -18 -2 -18 -8z"/>
<path d="M2032 2350 c0 -14 2 -19 5 -12 2 6 2 18 0 25 -3 6 -5 1 -5 -13z"/>
<path d="M1923 2353 c-10 -4 -10 -7 0 -18 7 -7 15 -11 19 -9 4 2 9 -5 13 -16
5 -15 12 -19 26 -15 11 4 19 2 19 -5 0 -6 5 -8 10 -5 14 9 12 26 -2 23 -7 -2
-12 3 -13 11 0 16 -53 41 -72 34z"/>
<path d="M2980 2341 c0 -6 4 -12 8 -15 5 -3 9 1 9 9 0 8 -4 15 -9 15 -4 0 -8
-4 -8 -9z"/>
<path d="M1765 2250 c3 -5 8 -10 11 -10 2 0 4 5 4 10 0 6 -5 10 -11 10 -5 0
-7 -4 -4 -10z"/>
<path d="M3231 2274 c0 -11 3 -14 6 -6 3 7 2 16 -1 19 -3 4 -6 -2 -5 -13z"/>
<path d="M3300 2141 c0 -5 5 -13 10 -16 6 -3 10 -2 10 4 0 5 -4 13 -10 16 -5
3 -10 2 -10 -4z"/>
<path d="M3355 2090 c-3 -5 3 -14 14 -19 26 -14 31 -14 31 3 0 16 -37 29 -45
16z"/>
<path d="M3390 2010 c0 -5 4 -10 9 -10 6 0 13 5 16 10 3 6 -1 10 -9 10 -9 0
-16 -4 -16 -10z"/>
<path d="M3437 1991 c-2 -9 4 -28 14 -40 20 -24 26 -17 9 9 -5 8 -5 17 -1 20
5 3 3 10 -4 17 -10 9 -14 8 -18 -6z"/>
<path d="M3431 1934 c0 -11 3 -14 6 -6 3 7 2 16 -1 19 -3 4 -6 -2 -5 -13z"/>
<path d="M3507 1893 c-11 -11 -8 -20 7 -20 8 0 12 6 9 14 -6 15 -7 15 -16 6z"/>
<path d="M3514 1830 c2 -18 11 -37 20 -43 16 -13 38 -94 27 -99 -4 -2 -4 -14
0 -28 l7 -25 2 25 c1 23 2 24 11 5 8 -16 8 -15 4 8 -4 18 -2 26 4 22 7 -4 8 0
4 10 -5 13 -7 14 -14 3 -6 -9 -9 -3 -8 17 1 17 -5 43 -14 59 -9 16 -15 32 -13
35 2 3 -6 14 -16 24 -19 18 -19 18 -14 -13z"/>
<path d="M1654 2139 c0 -13 3 -15 13 -7 7 6 13 12 13 13 0 2 -6 5 -13 8 -7 3
-13 -3 -13 -14z"/>
<path d="M1587 2076 c-35 -56 -34 -64 6 -30 32 27 32 27 35 5 4 -24 32 -26 40
-3 2 7 -2 10 -10 7 -9 -4 -19 4 -26 17 -6 13 -11 17 -11 11 -1 -7 -6 -13 -11
-13 -7 0 -7 7 0 21 21 39 5 28 -23 -15z"/>
<path d="M1550 1999 c0 -5 5 -7 10 -4 6 3 10 8 10 11 0 2 -4 4 -10 4 -5 0 -10
-5 -10 -11z"/>
<path d="M1525 1970 c-3 -5 -1 -10 4 -10 6 0 11 5 11 10 0 6 -2 10 -4 10 -3 0
-8 -4 -11 -10z"/>
<path d="M1550 1965 c-10 -11 -9 -18 3 -30 9 -8 18 -11 21 -6 4 5 0 11 -6 14
-10 3 -10 7 1 20 7 10 9 17 3 17 -5 0 -15 -7 -22 -15z"/>
<path d="M1465 1849 c-4 -19 -14 -45 -22 -58 -11 -17 -12 -26 -4 -34 8 -8 11
-6 11 7 0 9 7 24 15 33 9 9 13 24 10 37 -5 18 -4 17 9 -4 19 -32 20 -22 2 21
l-14 32 -7 -34z"/>
<path d="M1425 1734 c4 -14 0 -24 -10 -28 -8 -3 -15 -10 -15 -16 0 -6 4 -9 9
-6 5 4 7 -4 3 -16 -3 -14 -1 -19 6 -14 17 10 25 63 12 83 -10 16 -10 16 -5 -3z"/>
<path d="M1430 1650 c0 -5 5 -10 10 -10 6 0 10 5 10 10 0 6 -4 10 -10 10 -5 0
-10 -4 -10 -10z"/>
<path d="M1890 1788 c0 -19 7 -41 15 -48 12 -10 13 -6 8 27 -8 52 -23 66 -23
21z"/>
<path d="M1921 1541 c-9 -6 -7 -10 8 -14 12 -3 21 -1 21 3 0 14 -15 19 -29 11z"/>
<path d="M1396 951 c-18 -7 -18 -8 -3 -14 21 -8 77 2 77 14 0 11 -47 11 -74 0z"/>
<path d="M3090 1788 c0 -19 -5 -39 -12 -46 -9 -9 -9 -12 -1 -12 7 0 14 4 18 9
10 17 13 71 4 77 -5 3 -9 -10 -9 -28z"/>
<path d="M3054 1539 c-9 -16 2 -22 21 -11 15 8 16 10 1 15 -8 3 -18 2 -22 -4z"/>
<path d="M3530 951 c0 -11 70 -22 83 -14 6 4 2 10 -9 14 -27 11 -74 11 -74 0z"/>
<path d="M3645 1550 c3 -5 11 -10 16 -10 6 0 7 5 4 10 -3 6 -11 10 -16 10 -6
0 -7 -4 -4 -10z"/>
<path d="M1293 1524 c-15 -14 -23 -23 -16 -20 6 4 14 2 18 -4 3 -5 12 -10 18
-10 7 0 6 4 -3 10 -8 5 -10 10 -5 10 6 0 16 9 23 20 17 28 -2 25 -35 -6z"/>
<path d="M2007 3973 c-15 -22 -65 -76 -111 -120 -75 -70 -86 -86 -101 -138
-12 -39 -15 -73 -11 -106 11 -81 18 -87 33 -28 17 65 41 103 122 189 77 82
103 133 99 196 l-3 48 -28 -41z"/>
<path d="M2971 3974 c-21 -47 -13 -79 44 -165 66 -101 74 -81 20 51 -19 46
-35 94 -35 106 0 33 -15 37 -29 8z"/>
<path d="M2272 1848 c59 -76 169 -186 257 -260 47 -39 93 -79 102 -88 17 -19
79 -54 85 -48 2 2 -36 33 -84 69 -93 68 -340 304 -330 315 4 3 67 -32 140 -79
127 -80 324 -191 303 -170 -5 6 -73 48 -150 93 -77 46 -184 112 -238 147 -54
35 -102 63 -108 63 -6 0 4 -19 23 -42z"/>
<path d="M2469 1877 c16 -20 125 -99 161 -116 l25 -12 -25 20 c-52 42 -174
124 -161 108z"/>
<path d="M2270 1696 c25 -31 290 -188 290 -172 0 2 -28 20 -62 39 -35 20 -103
61 -152 91 -49 31 -83 50 -76 42z"/>
</g>
</svg>
