<svg version="1.1" id="Layer_1" xmlns="http://www.w3.org/2000/svg" xmlns:xlink="http://www.w3.org/1999/xlink" x="0px" y="0px"
	 width="100%" viewBox="0 0 577 433" enable-background="new 0 0 577 433" xml:space="preserve">
<path fill="#000000" opacity="1.000000" stroke="none" 
	d="
M404.000000,434.000000 
	C269.333374,434.000000 135.166733,434.000000 1.000072,434.000000 
	C1.000048,289.666748 1.000048,145.333466 1.000024,1.000149 
	C193.333206,1.000100 385.666412,1.000100 577.999756,1.000050 
	C577.999817,145.333191 577.999817,289.666382 577.999878,433.999786 
	C520.166687,434.000000 462.333344,434.000000 404.000000,434.000000 
M154.035522,192.584290 
	C152.220169,196.636993 149.814804,200.538895 148.731155,204.778610 
	C147.199799,210.769897 152.036743,218.499115 157.835815,218.632935 
	C163.439789,218.762238 165.389847,221.161148 166.192932,225.969345 
	C166.402512,227.224136 167.055679,228.633789 167.956833,229.505157 
	C172.233368,233.640366 171.648804,238.875000 172.190765,244.160019 
	C173.245743,254.447281 175.387390,264.562775 184.065353,271.789734 
	C184.959824,272.534668 185.279312,274.635284 185.038773,275.956268 
	C184.237457,280.357056 182.564545,284.639435 182.120590,289.057159 
	C180.898300,301.219330 188.753067,307.639313 200.089584,303.731598 
	C203.964401,302.395935 205.470078,303.773163 206.970551,306.940033 
	C211.594757,316.699829 218.872437,324.041687 228.067856,329.617462 
	C245.658463,340.283722 265.104340,343.095215 285.137482,342.658417 
	C305.967834,342.204224 325.994476,337.522980 345.109131,329.202698 
	C370.936157,317.960632 393.512970,302.600647 408.519409,277.982025 
	C416.044373,265.637115 419.196045,252.201767 416.622284,237.872162 
	C415.866028,233.661621 416.430878,231.895111 420.754059,230.902603 
	C426.915863,229.487961 429.306824,225.955307 428.962402,219.655716 
	C428.502289,211.239838 423.311920,205.517502 416.970215,201.023117 
	C413.507294,198.568954 412.011566,196.280762 411.807587,191.884491 
	C411.275940,180.426331 408.437988,169.564896 400.187592,160.859863 
	C399.644592,160.286926 399.209045,159.493637 399.013214,158.728668 
	C397.207306,151.675003 395.347565,144.630493 393.807190,137.517548 
	C393.510620,136.147995 394.040314,133.898788 395.035431,133.061020 
	C403.044128,126.318718 403.436340,116.426094 395.016235,109.924179 
	C390.918152,106.759697 385.858795,104.078239 380.849121,103.042503 
	C374.071716,101.641266 369.769257,98.101013 365.122162,93.216316 
	C334.714050,61.253647 296.680389,52.422607 254.589844,59.895596 
	C228.204086,64.580269 206.583954,78.793083 189.204620,99.267647 
	C171.811432,119.758507 161.273956,143.147644 162.378235,170.274567 
	C162.750793,179.426590 161.008743,186.167191 154.035522,192.584290 
M291.500000,378.985138 
	C264.625793,380.671173 237.738571,382.182312 210.887314,384.177124 
	C204.843353,384.626129 198.878906,386.598175 192.980728,388.238953 
	C191.506180,388.649139 190.430893,390.494568 189.172134,391.680359 
	C190.357132,392.743408 191.382660,394.149506 192.763458,394.791351 
	C194.990295,395.826538 197.409836,396.548462 199.819748,397.072815 
	C222.486633,402.004272 245.536423,403.450684 268.624603,403.924683 
	C302.398346,404.617981 336.205750,404.983429 369.819458,400.827606 
	C379.970154,399.572632 389.970001,397.033569 399.989075,394.853363 
	C401.353424,394.556488 402.426208,392.919647 403.633972,391.903198 
	C402.583344,390.727325 401.681061,389.348450 400.435974,388.438721 
	C399.411591,387.690247 398.012695,387.318024 396.724640,387.088409 
	C387.093292,385.371338 377.503265,382.839966 367.796722,382.240875 
	C342.726288,380.693604 317.602478,380.010345 291.500000,378.985138 
z"/>
<path fill="#3F0873" opacity="1.000000" stroke="none" 
	d="
M154.263214,192.304565 
	C161.008743,186.167191 162.750793,179.426590 162.378235,170.274567 
	C161.273956,143.147644 171.811432,119.758507 189.204620,99.267647 
	C206.583954,78.793083 228.204086,64.580269 254.589844,59.895596 
	C296.680389,52.422607 334.714050,61.253647 365.122162,93.216316 
	C369.769257,98.101013 374.071716,101.641266 380.849121,103.042503 
	C385.858795,104.078239 390.918152,106.759697 395.016235,109.924179 
	C403.436340,116.426094 403.044128,126.318718 395.035431,133.061020 
	C394.040314,133.898788 393.510620,136.147995 393.807190,137.517548 
	C395.347565,144.630493 397.207306,151.675003 399.013214,158.728668 
	C399.209045,159.493637 399.644592,160.286926 400.187592,160.859863 
	C408.437988,169.564896 411.275940,180.426331 411.807587,191.884491 
	C412.011566,196.280762 413.507294,198.568954 416.970215,201.023117 
	C423.311920,205.517502 428.502289,211.239838 428.962402,219.655716 
	C429.306824,225.955307 426.915863,229.487961 420.754059,230.902603 
	C416.430878,231.895111 415.866028,233.661621 416.622284,237.872162 
	C419.196045,252.201767 416.044373,265.637115 408.519409,277.982025 
	C393.512970,302.600647 370.936157,317.960632 345.109131,329.202698 
	C325.994476,337.522980 305.967834,342.204224 285.137482,342.658417 
	C265.104340,343.095215 245.658463,340.283722 228.067856,329.617462 
	C218.872437,324.041687 211.594757,316.699829 206.970551,306.940033 
	C205.470078,303.773163 203.964401,302.395935 200.089584,303.731598 
	C188.753067,307.639313 180.898300,301.219330 182.120590,289.057159 
	C182.564545,284.639435 184.237457,280.357056 185.038773,275.956268 
	C185.279312,274.635284 184.959824,272.534668 184.065353,271.789734 
	C175.387390,264.562775 173.245743,254.447281 172.190765,244.160019 
	C171.648804,238.875000 172.233368,233.640366 167.956833,229.505157 
	C167.055679,228.633789 166.402512,227.224136 166.192932,225.969345 
	C165.389847,221.161148 163.439789,218.762238 157.835815,218.632935 
	C152.036743,218.499115 147.199799,210.769897 148.731155,204.778610 
	C149.814804,200.538895 152.220169,196.636993 154.263214,192.304565 
M355.740906,190.047226 
	C358.653381,188.406158 361.565857,186.765106 365.135345,185.021225 
	C368.091705,183.054367 371.048096,181.087509 374.646790,178.879349 
	C377.420197,176.567749 380.193604,174.256149 383.545105,171.619049 
	C386.373535,168.275970 389.201965,164.932877 392.601898,161.110519 
	C396.808990,152.428223 390.983551,145.602066 389.237366,138.021210 
	C388.796295,137.973038 388.355255,137.924866 387.914185,137.876694 
	C387.279633,138.917938 386.645050,139.959198 385.410248,141.458527 
	C385.081665,144.031830 384.165985,146.695602 384.545685,149.159760 
	C385.358063,154.431488 384.083771,158.593781 379.038513,162.005890 
	C376.034119,162.543198 373.029755,163.080505 369.194305,163.382904 
	C364.862366,163.422668 360.211548,162.410095 356.760956,167.535934 
	C354.864471,172.026566 352.967987,176.517181 350.482758,181.358246 
	C346.322845,185.674591 342.149963,189.978561 338.017609,194.321106 
	C337.424011,194.944885 337.025696,195.754486 336.536987,196.478073 
	C337.478607,196.746368 338.628571,197.503494 339.328674,197.205109 
	C344.608246,194.954819 349.799408,192.497055 355.740906,190.047226 
M253.632523,223.072708 
	C254.178329,222.723938 254.724136,222.375168 255.857178,221.753220 
	C258.669739,218.975555 261.711853,216.391235 264.247681,213.380493 
	C269.732178,206.868942 275.890625,201.348022 284.876587,198.136353 
	C288.812927,198.257370 292.797882,198.795792 296.667572,198.344910 
	C299.038696,198.068634 301.233032,196.275391 304.246094,195.089905 
	C306.462006,193.664658 308.677917,192.239426 311.839783,190.869934 
	C316.441467,191.102966 321.069641,191.105576 325.637665,191.631073 
	C330.628571,192.205231 335.146576,191.582489 339.804840,187.982971 
	C343.233246,182.405685 347.332092,177.122375 349.935974,171.183563 
	C354.043060,161.816315 357.372345,158.990067 367.516693,158.999741 
	C368.513458,159.000687 369.510315,159.020203 370.506989,159.012787 
	C378.827148,158.950851 380.543762,157.259277 380.011658,149.049332 
	C379.482819,140.890427 382.654236,134.990677 389.868744,131.057663 
	C392.136261,129.821503 394.003540,127.851097 396.588745,125.613251 
	C399.405243,116.447044 389.188263,107.839066 375.189423,106.319267 
	C376.219635,107.843689 376.999542,108.997765 377.987122,110.895653 
	C378.694733,113.616379 379.666199,116.299194 380.063629,119.064499 
	C381.646729,130.079605 376.142609,138.048492 368.099670,144.375168 
	C358.601196,151.846802 348.663818,158.760452 338.234375,166.094772 
	C335.004486,167.796982 331.778839,169.507324 328.544037,171.200119 
	C308.150177,181.872269 286.729858,189.982605 264.558075,195.977386 
	C241.101349,202.319580 217.243607,205.444580 192.951324,201.939087 
	C184.924255,200.780746 176.755066,199.442184 170.459229,193.514450 
	C168.467514,191.639145 166.748596,189.474121 163.782822,186.204880 
	C160.208069,192.286392 157.101898,197.570755 153.312241,203.309738 
	C152.199295,212.884888 156.440292,216.781616 165.752228,214.045303 
	C171.185654,212.448654 175.728607,213.279694 180.217712,216.364929 
	C187.474838,221.352524 191.203735,221.242020 199.050995,215.948700 
	C200.191147,215.330673 201.331299,214.712662 203.388641,214.109650 
	C208.590210,214.227188 214.030640,213.428680 218.929810,214.706039 
	C224.419815,216.137451 229.491058,219.310928 234.614883,221.975677 
	C240.668350,225.123886 246.628860,227.762817 252.996887,222.994583 
	C252.996887,222.994583 252.963882,223.075012 253.632523,223.072708 
M173.237289,217.805054 
	C169.791840,216.631195 168.398483,217.950119 169.279816,221.367081 
	C170.584412,226.425064 172.479889,231.142120 178.910507,233.006287 
	C192.358688,237.893570 206.302322,239.004944 221.192581,238.621628 
	C225.360672,238.336014 229.528748,238.050400 234.570251,237.841934 
	C255.568115,235.817078 275.629303,230.213959 295.713776,221.866974 
	C300.222626,219.735245 304.842102,217.806641 309.214844,215.425018 
	C316.071136,211.690750 322.864532,207.813049 329.440491,203.613846 
	C330.893646,202.685913 331.327515,200.161728 332.230743,198.372559 
	C330.643280,197.605408 329.123077,196.590286 327.450562,196.136673 
	C325.548462,195.620758 323.500732,195.668076 321.533051,195.362579 
	C315.740784,194.463287 310.720367,194.955795 305.829407,199.301208 
	C303.155701,201.676682 298.214783,202.711243 294.447205,202.417160 
	C283.206421,201.539719 275.264526,206.215546 268.649658,215.503906 
	C266.791565,217.377716 264.939056,219.257065 263.074463,221.124405 
	C253.193207,231.020309 245.230270,232.286179 232.376419,225.462036 
	C226.599136,223.017502 220.821869,220.572968 214.306046,217.842361 
	C208.539291,216.074875 203.679184,218.502960 198.877594,221.183884 
	C191.810959,225.129471 184.910034,225.786331 178.160721,220.394730 
	C176.917572,219.401672 175.302582,218.874115 173.237289,217.805054 
M406.459137,205.384842 
	C396.112854,212.911636 386.035583,220.850494 375.336060,227.836212 
	C366.611847,233.532227 357.143494,238.088516 347.290100,243.195465 
	C321.244568,255.170349 294.257355,264.394104 266.146667,270.023132 
	C242.094070,274.839539 217.814331,277.492615 192.407639,274.843140 
	C191.578674,275.081116 190.228256,275.084625 189.999817,275.592621 
	C187.089157,282.065613 185.589752,288.889008 187.314926,295.865814 
	C188.301605,299.856049 191.564499,301.778931 195.778381,300.720306 
	C197.967834,300.170258 199.990189,298.955078 202.800095,297.951782 
	C213.350357,293.997528 223.900635,290.043304 235.393036,286.315186 
	C243.675369,285.605042 251.945358,284.642670 260.242584,284.236115 
	C278.713776,283.331024 296.598602,287.200806 314.435181,291.350525 
	C320.959717,292.868469 327.301208,292.357300 333.877686,288.829834 
	C337.644562,284.625580 341.411438,280.421356 345.821320,275.992645 
	C364.972717,252.410263 388.484833,235.249496 418.770264,227.032013 
	C424.823151,225.002853 426.693268,222.593445 423.923920,217.194046 
	C421.304291,212.086533 417.032532,207.724869 413.022644,203.473587 
	C410.932831,201.257965 408.490631,202.391891 406.459137,205.384842 
M404.664154,200.864914 
	C405.631378,198.655396 407.626892,196.321030 407.376526,194.259384 
	C406.566956,187.592758 405.385071,180.889450 403.445648,174.472565 
	C402.278320,170.610107 399.436432,167.253754 396.729218,162.610260 
	C394.861725,165.685989 393.862335,167.331909 392.294373,169.303024 
	C383.064514,179.058640 372.350067,186.884964 360.355743,192.792542 
	C348.082611,198.837479 335.258362,203.695297 324.186554,212.119537 
	C318.967773,216.090347 312.764679,218.767456 306.325378,222.238754 
	C266.615753,239.510941 225.856476,249.037582 181.932602,238.619736 
	C180.229813,238.103912 178.527023,237.588089 176.227570,236.891525 
	C175.608749,245.537735 177.563873,253.040298 180.725494,260.445679 
	C183.424530,266.767548 187.798676,270.306061 195.656982,270.812073 
	C208.137497,270.776703 220.704224,271.670227 233.081375,270.521332 
	C263.044769,267.740021 292.112885,260.561340 320.203766,249.744614 
	C329.019562,246.350006 337.487030,242.050842 346.841614,238.061722 
	C352.920288,235.008469 359.389618,232.539001 364.999390,228.785034 
	C378.228088,219.932632 391.047241,210.468201 404.664154,200.864914 
M212.372681,298.259460 
	C209.026840,299.048157 207.822311,300.788361 209.966812,303.886993 
	C213.070236,308.371216 215.788345,313.219330 219.440460,317.207458 
	C228.505280,327.106293 240.355850,332.202545 253.180862,335.257690 
	C270.917725,339.482910 288.726349,339.412964 307.325104,336.115082 
	C313.179199,334.650818 319.033295,333.186554 325.630920,331.831848 
	C348.368011,324.958191 369.018707,314.269470 386.573975,298.086487 
	C399.288269,286.366028 409.214783,272.821564 412.465973,255.374832 
	C413.802094,248.204941 413.987793,240.988525 410.934204,233.893524 
	C393.444031,239.731522 378.457336,248.966782 365.709351,261.334900 
	C355.858154,270.892517 347.177155,281.656311 337.242523,292.001221 
	C329.843964,296.265686 321.829803,297.004822 313.670746,295.475159 
	C297.874634,292.513763 282.307739,288.454010 266.010223,288.514130 
	C247.738785,288.581543 229.919144,290.389679 212.372681,298.259460 
M306.270721,64.759956 
	C286.411102,59.845318 266.730103,59.775890 247.318222,66.941399 
	C243.539459,68.336250 239.767654,69.749992 235.228592,70.977783 
	C233.662964,71.441597 231.966583,71.657791 230.550797,72.405365 
	C193.367142,92.039391 170.455017,121.792473 166.464249,164.403656 
	C165.543228,174.237656 165.374969,184.633484 175.276810,191.871307 
	C175.517334,192.052841 175.779678,192.193756 176.444946,192.837097 
	C180.867477,194.237274 185.203995,196.079773 189.727753,196.959579 
	C207.453125,200.406891 225.236725,199.511932 242.867233,196.352402 
	C270.046051,191.481720 295.891144,182.353317 320.682892,170.331055 
	C338.408264,161.735504 355.121307,151.498398 369.178711,137.432220 
	C376.993622,129.612442 378.071075,120.149109 372.606415,110.606941 
	C365.412659,98.045479 355.390381,88.180611 343.420502,80.364471 
	C332.252167,73.071747 320.398254,67.088333 306.270721,64.759956 
z"/>
<path fill="#6793D4" opacity="1.000000" stroke="none" 
	d="
M292.000000,378.983551 
	C317.602478,380.010345 342.726288,380.693604 367.796722,382.240875 
	C377.503265,382.839966 387.093292,385.371338 396.724640,387.088409 
	C398.012695,387.318024 399.411591,387.690247 400.435974,388.438721 
	C401.681061,389.348450 402.583344,390.727325 403.633972,391.903198 
	C402.426208,392.919647 401.353424,394.556488 399.989075,394.853363 
	C389.970001,397.033569 379.970154,399.572632 369.819458,400.827606 
	C336.205750,404.983429 302.398346,404.617981 268.624603,403.924683 
	C245.536423,403.450684 222.486633,402.004272 199.819748,397.072815 
	C197.409836,396.548462 194.990295,395.826538 192.763458,394.791351 
	C191.382660,394.149506 190.357132,392.743408 189.172119,391.680359 
	C190.430893,390.494568 191.506180,388.649139 192.980728,388.238953 
	C198.878906,386.598175 204.843353,384.626129 210.887314,384.177124 
	C237.738571,382.182312 264.625793,380.671173 292.000000,378.983551 
z"/>
<path fill="#FFA42D" opacity="1.000000" stroke="none" 
	d="
M176.063828,192.294067 
	C175.779678,192.193756 175.517334,192.052841 175.139771,191.284485 
	C173.344528,184.193985 170.213745,177.676407 170.274979,171.188950 
	C170.593979,137.399124 185.298218,110.106171 210.588074,88.466675 
	C218.327469,81.844398 227.484711,76.879128 235.992645,71.155029 
	C239.767654,69.749992 243.539459,68.336250 247.318222,66.941399 
	C266.730103,59.775890 286.411102,59.845318 306.719177,65.270004 
	C308.772339,66.946159 310.316956,68.207581 311.991302,69.263229 
	C324.726074,77.292282 335.091949,87.651985 342.995270,100.481575 
	C349.168457,110.502548 348.709961,121.395683 340.066223,129.147980 
	C330.455658,137.767441 320.553833,146.548035 309.436707,152.915146 
	C268.200562,176.532364 224.469116,192.557693 176.063828,192.294067 
M187.482056,144.190948 
	C185.757538,149.111221 183.077515,153.935226 182.569565,158.978043 
	C182.030838,164.326370 186.490860,168.762253 191.178589,169.780914 
	C196.427551,170.921524 205.517441,168.214294 207.480591,164.482437 
	C208.281662,162.959610 208.620316,160.292511 207.807266,159.008408 
	C206.090805,156.297470 203.766434,153.755066 201.164886,151.870438 
	C197.020706,148.868301 192.446716,146.459473 187.482056,144.190948 
M230.953278,157.579453 
	C230.390152,153.308060 227.665497,152.513062 224.098816,153.557236 
	C220.429489,154.631470 217.254898,156.468094 217.237381,160.902374 
	C217.233810,161.804184 218.179276,163.085983 219.035721,163.551437 
	C223.299591,165.868774 229.279907,163.188660 230.953278,157.579453 
z"/>
<path fill="#FEA42D" opacity="1.000000" stroke="none" 
	d="
M324.887390,331.722290 
	C319.033295,333.186554 313.179199,334.650818 306.454224,336.095154 
	C290.625092,337.406525 275.738861,337.449188 260.988159,334.011261 
	C239.770584,329.066040 222.254074,319.245514 213.123459,298.184967 
	C229.919144,290.389679 247.738785,288.581543 266.010223,288.514130 
	C282.307739,288.454010 297.874634,292.513763 313.670746,295.475159 
	C321.829803,297.004822 329.843964,296.265686 337.915222,292.148804 
	C345.996368,293.394562 351.313965,289.972290 355.712036,284.454742 
	C359.328735,279.917480 362.732361,275.147125 366.840637,271.099426 
	C368.268646,269.692444 371.816254,269.265869 373.877441,269.950989 
	C376.857880,270.941681 377.582275,273.990356 376.410645,277.062561 
	C375.525330,279.384064 374.638275,281.723450 373.508453,283.930206 
	C365.929169,298.733398 354.711212,310.337097 341.406433,320.051025 
	C335.961945,324.026123 330.397369,327.836823 324.887390,331.722290 
z"/>
<path fill="#C27342" opacity="1.000000" stroke="none" 
	d="
M176.254395,192.565582 
	C224.469116,192.557693 268.200562,176.532364 309.436707,152.915146 
	C320.553833,146.548035 330.455658,137.767441 340.066223,129.147980 
	C348.709961,121.395683 349.168457,110.502548 342.995270,100.481575 
	C335.091949,87.651985 324.726074,77.292282 311.991302,69.263229 
	C310.316956,68.207581 308.772339,66.946159 307.047089,65.472733 
	C320.398254,67.088333 332.252167,73.071747 343.420502,80.364471 
	C355.390381,88.180611 365.412659,98.045479 372.606415,110.606941 
	C378.071075,120.149109 376.993622,129.612442 369.178711,137.432220 
	C355.121307,151.498398 338.408264,161.735504 320.682892,170.331055 
	C295.891144,182.353317 270.046051,191.481720 242.867233,196.352402 
	C225.236725,199.511932 207.453125,200.406891 189.727753,196.959579 
	C185.203995,196.079773 180.867477,194.237274 176.254395,192.565582 
z"/>
<path fill="#A43440" opacity="1.000000" stroke="none" 
	d="
M182.449448,239.025894 
	C225.856476,249.037582 266.615753,239.510941 306.932495,222.294266 
	C308.490326,222.181305 309.514740,222.185898 310.380219,221.817261 
	C317.846863,218.636948 325.286560,215.393387 332.730743,212.160416 
	C337.727142,209.990479 341.708588,210.492172 342.999329,214.401917 
	C345.525543,222.054260 350.384064,229.570236 346.113922,238.165710 
	C337.487030,242.050842 329.019562,246.350006 320.203766,249.744614 
	C292.112885,260.561340 263.044769,267.740021 233.081375,270.521332 
	C220.704224,271.670227 208.137497,270.776703 194.931458,270.537842 
	C184.954636,261.857971 183.260422,250.608139 182.449448,239.025894 
M241.958191,258.437805 
	C238.987885,249.935623 238.987885,249.935272 229.828140,250.055954 
	C227.007690,250.093109 224.166107,249.942764 221.376007,250.253601 
	C220.032837,250.403244 218.312134,251.087418 217.583328,252.112961 
	C215.126724,255.569733 219.509171,265.460724 223.739822,265.780731 
	C228.349670,266.129517 233.044998,266.088287 237.642349,265.620422 
	C241.100220,265.268585 243.692902,263.442657 241.958191,258.437805 
M258.020721,262.716522 
	C260.908752,261.818085 265.322418,261.965302 264.705231,257.649231 
	C264.155365,253.803986 262.811218,248.854462 260.051392,246.944794 
	C258.000214,245.525482 251.740417,247.087280 249.924393,249.367477 
	C248.346985,251.348114 250.167023,256.239868 250.865494,259.769928 
	C251.561996,263.290039 254.444931,263.147400 258.020721,262.716522 
z"/>
<path fill="#FDBB02" opacity="1.000000" stroke="none" 
	d="
M234.450897,286.089050 
	C223.900635,290.043304 213.350357,293.997528 202.058868,297.950165 
	C194.866440,296.750916 191.939590,293.797302 191.877686,287.347534 
	C191.838577,283.272156 192.742096,279.187683 193.222809,275.107300 
	C217.814331,277.492615 242.094070,274.839539 266.146667,270.023132 
	C294.257355,264.394104 321.244568,255.170349 347.729736,243.519958 
	C352.639130,249.849289 351.260712,256.332764 349.525024,262.736359 
	C348.291199,267.288239 346.642059,271.727539 345.178314,276.217102 
	C341.411438,280.421356 337.644562,284.625580 333.071320,288.859192 
	C327.156525,288.390015 321.879120,288.545441 316.969788,287.276581 
	C298.471619,282.495544 279.751465,279.707764 260.686981,281.291840 
	C251.869614,282.024475 243.191910,284.437744 234.450897,286.089050 
z"/>
<path fill="#C27242" opacity="1.000000" stroke="none" 
	d="
M325.259155,331.777069 
	C330.397369,327.836823 335.961945,324.026123 341.406433,320.051025 
	C354.711212,310.337097 365.929169,298.733398 373.508453,283.930206 
	C374.638275,281.723450 375.525330,279.384064 376.410645,277.062561 
	C377.582275,273.990356 376.857880,270.941681 373.877441,269.950989 
	C371.816254,269.265869 368.268646,269.692444 366.840637,271.099426 
	C362.732361,275.147125 359.328735,279.917480 355.712036,284.454742 
	C351.313965,289.972290 345.996368,293.394562 338.281921,292.090088 
	C347.177155,281.656311 355.858154,270.892517 365.709351,261.334900 
	C378.457336,248.966782 393.444031,239.731522 410.934204,233.893524 
	C413.987793,240.988525 413.802094,248.204941 412.465973,255.374832 
	C409.214783,272.821564 399.288269,286.366028 386.573975,298.086487 
	C369.018707,314.269470 348.368011,324.958191 325.259155,331.777069 
z"/>
<path fill="#8CCC10" opacity="1.000000" stroke="none" 
	d="
M153.995728,202.855118 
	C157.101898,197.570755 160.208069,192.286392 163.782822,186.204880 
	C166.748596,189.474121 168.467514,191.639145 170.459229,193.514450 
	C176.755066,199.442184 184.924255,200.780746 192.951324,201.939087 
	C217.243607,205.444580 241.101349,202.319580 264.558075,195.977386 
	C286.729858,189.982605 308.150177,181.872269 328.544037,171.200119 
	C331.778839,169.507324 335.004486,167.796982 338.868652,166.215210 
	C340.514679,169.458527 342.612274,172.703079 342.279236,175.675293 
	C341.801117,179.942459 339.551331,184.011124 337.755920,188.272644 
	C331.420868,188.217377 325.371063,187.727112 319.361816,188.033112 
	C316.499359,188.178864 313.714081,189.839676 310.893829,190.814194 
	C308.677917,192.239426 306.462006,193.664658 303.564545,195.227432 
	C301.240631,195.268433 299.536194,194.841980 297.967590,195.137238 
	C293.267517,196.021896 288.620575,197.188629 283.952881,198.245270 
	C275.890625,201.348022 269.732178,206.868942 264.247681,213.380493 
	C261.711853,216.391235 258.669739,218.975555 255.232513,221.941101 
	C254.059875,222.444305 253.511871,222.759659 252.963867,223.075012 
	C252.963882,223.075012 252.996887,222.994583 252.615997,222.917938 
	C246.839874,221.098282 241.372375,219.548111 236.068832,217.560455 
	C230.237854,215.375168 224.716736,212.228806 218.766327,210.535065 
	C213.046310,208.906891 207.301437,210.145020 202.471451,214.094635 
	C201.331299,214.712662 200.191147,215.330673 198.334167,216.021454 
	C192.283630,217.634796 187.506882,216.781082 183.165665,213.138168 
	C179.777756,210.295227 175.927200,209.689041 171.482788,210.720352 
	C161.102783,213.129013 158.777863,211.932938 153.995728,202.855118 
z"/>
<path fill="#832550" opacity="1.000000" stroke="none" 
	d="
M346.477783,238.113708 
	C350.384064,229.570236 345.525543,222.054260 342.999329,214.401917 
	C341.708588,210.492172 337.727142,209.990479 332.730743,212.160416 
	C325.286560,215.393387 317.846863,218.636948 310.380219,221.817261 
	C309.514740,222.185898 308.490326,222.181305 307.273590,222.190277 
	C312.764679,218.767456 318.967773,216.090347 324.186554,212.119537 
	C335.258362,203.695297 348.082611,198.837479 360.355743,192.792542 
	C372.350067,186.884964 383.064514,179.058640 392.934387,169.205139 
	C394.994385,170.612595 396.764252,171.915009 397.775146,173.657700 
	C402.716125,182.175537 404.074615,191.569031 404.032074,201.251343 
	C391.047241,210.468201 378.228088,219.932632 364.999390,228.785034 
	C359.389618,232.539001 352.920288,235.008469 346.477783,238.113708 
z"/>
<path fill="#C18325" opacity="1.000000" stroke="none" 
	d="
M345.499817,276.104858 
	C346.642059,271.727539 348.291199,267.288239 349.525024,262.736359 
	C351.260712,256.332764 352.639130,249.849289 348.087280,243.497299 
	C357.143494,238.088516 366.611847,233.532227 375.336060,227.836212 
	C386.035583,220.850494 396.112854,212.911636 406.979858,205.433990 
	C410.396332,207.945358 413.568909,210.153000 416.122406,212.929932 
	C419.881439,217.017792 421.396240,221.746445 418.023193,226.963181 
	C388.484833,235.249496 364.972717,252.410263 345.499817,276.104858 
z"/>
<path fill="#728E2F" opacity="1.000000" stroke="none" 
	d="
M338.057861,188.164520 
	C339.551331,184.011124 341.801117,179.942459 342.279236,175.675293 
	C342.612274,172.703079 340.514679,169.458527 339.209778,166.125824 
	C348.663818,158.760452 358.601196,151.846802 368.099670,144.375168 
	C376.142609,138.048492 381.646729,130.079605 380.063629,119.064499 
	C379.666199,116.299194 378.694733,113.616379 378.265259,110.539665 
	C387.527222,112.091072 393.536469,117.247192 396.054016,126.216766 
	C394.003540,127.851097 392.136261,129.821503 389.868744,131.057663 
	C382.654236,134.990677 379.482819,140.890427 380.011658,149.049332 
	C380.543762,157.259277 378.827148,158.950851 370.506989,159.012787 
	C369.510315,159.020203 368.513458,159.000687 367.516693,158.999741 
	C357.372345,158.990067 354.043060,161.816315 349.935974,171.183563 
	C347.332092,177.122375 343.233246,182.405685 339.180115,188.137299 
	C338.389557,188.249252 338.223724,188.206894 338.057861,188.164520 
z"/>
<path fill="#FB1E03" opacity="1.000000" stroke="none" 
	d="
M232.803467,225.942291 
	C245.230270,232.286179 253.193207,231.020309 263.074463,221.124405 
	C264.939056,219.257065 266.791565,217.377716 269.290283,215.291260 
	C274.662445,213.219833 279.297974,211.042450 284.149017,209.580109 
	C290.726379,207.597397 294.785187,210.770264 295.037140,217.574310 
	C295.091919,219.053879 295.023804,220.538010 295.012299,222.020035 
	C275.629303,230.213959 255.568115,235.817078 234.192719,237.377869 
	C233.477951,233.256622 233.140717,229.599457 232.803467,225.942291 
z"/>
<path fill="#C11525" opacity="1.000000" stroke="none" 
	d="
M295.363037,221.943512 
	C295.023804,220.538010 295.091919,219.053879 295.037140,217.574310 
	C294.785187,210.770264 290.726379,207.597397 284.149017,209.580109 
	C279.297974,211.042450 274.662445,213.219833 269.567993,215.100845 
	C275.264526,206.215546 283.206421,201.539719 294.447205,202.417160 
	C298.214783,202.711243 303.155701,201.676682 305.829407,199.301208 
	C310.720367,194.955795 315.740784,194.463287 321.533051,195.362579 
	C323.500732,195.668076 325.548462,195.620758 327.450562,196.136673 
	C329.123077,196.590286 330.643280,197.605408 332.230743,198.372559 
	C331.327515,200.161728 330.893646,202.685913 329.440491,203.613846 
	C322.864532,207.813049 316.071136,211.690750 309.214844,215.425018 
	C304.842102,217.806641 300.222626,219.735245 295.363037,221.943512 
z"/>
<path fill="#FB1E03" opacity="1.000000" stroke="none" 
	d="
M220.463470,238.458588 
	C206.302322,239.004944 192.358688,237.893570 178.525909,232.554443 
	C176.713943,227.445633 175.286591,222.788666 173.859238,218.131683 
	C175.302582,218.874115 176.917572,219.401672 178.160721,220.394730 
	C184.910034,225.786331 191.810959,225.129471 198.877594,221.183884 
	C203.679184,218.502960 208.539291,216.074875 214.738312,218.364197 
	C216.934875,225.410202 218.699173,231.934402 220.463470,238.458588 
z"/>
<path fill="#F6D0A5" opacity="1.000000" stroke="none" 
	d="
M235.610626,71.066406 
	C227.484711,76.879128 218.327469,81.844398 210.588074,88.466675 
	C185.298218,110.106171 170.593979,137.399124 170.274979,171.188950 
	C170.213745,177.676407 173.344528,184.193985 175.023819,191.092834 
	C165.374969,184.633484 165.543228,174.237656 166.464249,164.403656 
	C170.455017,121.792473 193.367142,92.039391 230.550797,72.405365 
	C231.966583,71.657791 233.662964,71.441597 235.610626,71.066406 
z"/>
<path fill="#F8D2A6" opacity="1.000000" stroke="none" 
	d="
M212.748077,298.222229 
	C222.254074,319.245514 239.770584,329.066040 260.988159,334.011261 
	C275.738861,337.449188 290.625092,337.406525 306.079834,336.042236 
	C288.726349,339.412964 270.917725,339.482910 253.180862,335.257690 
	C240.355850,332.202545 228.505280,327.106293 219.440460,317.207458 
	C215.788345,313.219330 213.070236,308.371216 209.966812,303.886993 
	C207.822311,300.788361 209.026840,299.048157 212.748077,298.222229 
z"/>
<path fill="#F8DB93" opacity="1.000000" stroke="none" 
	d="
M234.921967,286.202087 
	C243.191910,284.437744 251.869614,282.024475 260.686981,281.291840 
	C279.751465,279.707764 298.471619,282.495544 316.969788,287.276581 
	C321.879120,288.545441 327.156525,288.390015 332.744324,288.903717 
	C327.301208,292.357300 320.959717,292.868469 314.435181,291.350525 
	C296.598602,287.200806 278.713776,283.331024 260.242584,284.236115 
	C251.945358,284.642670 243.675369,285.605042 234.921967,286.202087 
z"/>
<path fill="#FC5440" opacity="1.000000" stroke="none" 
	d="
M220.828018,238.540100 
	C218.699173,231.934402 216.934875,225.410202 215.107574,218.507233 
	C220.821869,220.572968 226.599136,223.017502 232.589935,225.702164 
	C233.140717,229.599457 233.477951,233.256622 233.756012,237.339294 
	C229.528748,238.050400 225.360672,238.336014 220.828018,238.540100 
z"/>
<path fill="#FC5440" opacity="1.000000" stroke="none" 
	d="
M357.258392,166.999863 
	C360.211548,162.410095 364.862366,163.422668 369.711182,163.828979 
	C371.486877,169.223602 372.745667,174.172119 374.004456,179.120651 
	C371.048096,181.087509 368.091705,183.054367 364.587402,184.763351 
	C361.779114,178.670273 359.518738,172.835068 357.258392,166.999863 
z"/>
<path fill="#D5A7AE" opacity="1.000000" stroke="none" 
	d="
M182.191025,238.822815 
	C183.260422,250.608139 184.954636,261.857971 194.451538,270.444580 
	C187.798676,270.306061 183.424530,266.767548 180.725494,260.445679 
	C177.563873,253.040298 175.608749,245.537735 176.227570,236.891525 
	C178.527023,237.588089 180.229813,238.103912 182.191025,238.822815 
z"/>
<path fill="#C11525" opacity="1.000000" stroke="none" 
	d="
M379.815552,161.805740 
	C384.083771,158.593781 385.358063,154.431488 384.545685,149.159760 
	C384.165985,146.695602 385.081665,144.031830 385.980225,141.466583 
	C388.376953,148.179672 390.203674,154.884735 392.030396,161.589783 
	C389.201965,164.932877 386.373535,168.275970 383.244263,171.387726 
	C381.900787,168.039520 380.858154,164.922638 379.815552,161.805740 
z"/>
<path fill="#CAE298" opacity="1.000000" stroke="none" 
	d="
M202.930054,214.102142 
	C207.301437,210.145020 213.046310,208.906891 218.766327,210.535065 
	C224.716736,212.228806 230.237854,215.375168 236.068832,217.560455 
	C241.372375,219.548111 246.839874,221.098282 252.656235,222.934387 
	C246.628860,227.762817 240.668350,225.123886 234.614883,221.975677 
	C229.491058,219.310928 224.419815,216.137451 218.929810,214.706039 
	C214.030640,213.428680 208.590210,214.227188 202.930054,214.102142 
z"/>
<path fill="#CAE298" opacity="1.000000" stroke="none" 
	d="
M153.653992,203.082428 
	C158.777863,211.932938 161.102783,213.129013 171.482788,210.720352 
	C175.927200,209.689041 179.777756,210.295227 183.165665,213.138168 
	C187.506882,216.781082 192.283630,217.634796 198.050964,216.064590 
	C191.203735,221.242020 187.474838,221.352524 180.217712,216.364929 
	C175.728607,213.279694 171.185654,212.448654 165.752228,214.045303 
	C156.440292,216.781616 152.199295,212.884888 153.653992,203.082428 
z"/>
<path fill="#A43440" opacity="1.000000" stroke="none" 
	d="
M404.348114,201.058136 
	C404.074615,191.569031 402.716125,182.175537 397.775146,173.657700 
	C396.764252,171.915009 394.994385,170.612595 393.218689,169.042542 
	C393.862335,167.331909 394.861725,165.685989 396.729218,162.610260 
	C399.436432,167.253754 402.278320,170.610107 403.445648,174.472565 
	C405.385071,180.889450 406.566956,187.592758 407.376526,194.259384 
	C407.626892,196.321030 405.631378,198.655396 404.348114,201.058136 
z"/>
<path fill="#FB1E03" opacity="1.000000" stroke="none" 
	d="
M357.009674,167.267899 
	C359.518738,172.835068 361.779114,178.670273 364.258881,184.814758 
	C361.565857,186.765106 358.653381,188.406158 355.246033,189.731140 
	C353.524628,186.612656 352.298065,183.810242 351.071503,181.007812 
	C352.967987,176.517181 354.864471,172.026566 357.009674,167.267899 
z"/>
<path fill="#F8DB93" opacity="1.000000" stroke="none" 
	d="
M192.815216,274.975220 
	C192.742096,279.187683 191.838577,283.272156 191.877686,287.347534 
	C191.939590,293.797302 194.866440,296.750916 201.702820,297.994446 
	C199.990189,298.955078 197.967834,300.170258 195.778381,300.720306 
	C191.564499,301.778931 188.301605,299.856049 187.314926,295.865814 
	C185.589752,288.889008 187.089157,282.065613 189.999817,275.592621 
	C190.228256,275.084625 191.578674,275.081116 192.815216,274.975220 
z"/>
<path fill="#F5B306" opacity="1.000000" stroke="none" 
	d="
M418.396729,226.997589 
	C421.396240,221.746445 419.881439,217.017792 416.122406,212.929932 
	C413.568909,210.153000 410.396332,207.945358 407.261597,205.256256 
	C408.490631,202.391891 410.932831,201.257965 413.022644,203.473587 
	C417.032532,207.724869 421.304291,212.086533 423.923920,217.194046 
	C426.693268,222.593445 424.823151,225.002853 418.396729,226.997589 
z"/>
<path fill="#FB1E03" opacity="1.000000" stroke="none" 
	d="
M379.427032,161.905823 
	C380.858154,164.922638 381.900787,168.039520 382.955200,171.550476 
	C380.193604,174.256149 377.420197,176.567749 374.325623,179.000000 
	C372.745667,174.172119 371.486877,169.223602 370.126709,163.946442 
	C373.029755,163.080505 376.034119,162.543198 379.427032,161.905823 
z"/>
<path fill="#C11525" opacity="1.000000" stroke="none" 
	d="
M350.777130,181.183029 
	C352.298065,183.810242 353.524628,186.612656 354.884705,189.759583 
	C349.799408,192.497055 344.608246,194.954819 339.328674,197.205109 
	C338.628571,197.503494 337.478607,196.746368 336.536987,196.478073 
	C337.025696,195.754486 337.424011,194.944885 338.017609,194.321106 
	C342.149963,189.978561 346.322845,185.674591 350.777130,181.183029 
z"/>
<path fill="#86BF15" opacity="1.000000" stroke="none" 
	d="
M396.321381,125.915009 
	C393.536469,117.247192 387.527222,112.091072 378.161438,110.167755 
	C376.999542,108.997765 376.219635,107.843689 375.189423,106.319267 
	C389.188263,107.839066 399.405243,116.447044 396.321381,125.915009 
z"/>
<path fill="#CAE298" opacity="1.000000" stroke="none" 
	d="
M337.755920,188.272644 
	C338.223724,188.206894 338.389557,188.249252 338.810486,188.264679 
	C335.146576,191.582489 330.628571,192.205231 325.637665,191.631073 
	C321.069641,191.105576 316.441467,191.102966 311.366821,190.842072 
	C313.714081,189.839676 316.499359,188.178864 319.361816,188.033112 
	C325.371063,187.727112 331.420868,188.217377 337.755920,188.272644 
z"/>
<path fill="#FB1E03" opacity="1.000000" stroke="none" 
	d="
M392.316162,161.350159 
	C390.203674,154.884735 388.376953,148.179672 386.280365,141.237534 
	C386.645050,139.959198 387.279633,138.917938 387.914185,137.876694 
	C388.355255,137.924866 388.796295,137.973038 389.237366,138.021210 
	C390.983551,145.602066 396.808990,152.428223 392.316162,161.350159 
z"/>
<path fill="#F69992" opacity="1.000000" stroke="none" 
	d="
M173.548264,217.968369 
	C175.286591,222.788666 176.713943,227.445633 178.161606,232.472046 
	C172.479889,231.142120 170.584412,226.425064 169.279816,221.367081 
	C168.398483,217.950119 169.791840,216.631195 173.548264,217.968369 
z"/>
<path fill="#CAE298" opacity="1.000000" stroke="none" 
	d="
M284.414734,198.190811 
	C288.620575,197.188629 293.267517,196.021896 297.967590,195.137238 
	C299.536194,194.841980 301.240631,195.268433 303.194885,195.264175 
	C301.233032,196.275391 299.038696,198.068634 296.667572,198.344910 
	C292.797882,198.795792 288.812927,198.257370 284.414734,198.190811 
z"/>
<path fill="#CAE298" opacity="1.000000" stroke="none" 
	d="
M253.298187,223.073853 
	C253.511871,222.759659 254.059875,222.444305 254.938904,222.077682 
	C254.724136,222.375168 254.178329,222.723938 253.298187,223.073853 
z"/>
<path fill="#FFB655" opacity="1.000000" stroke="none" 
	d="
M187.768280,143.995346 
	C192.446716,146.459473 197.020706,148.868301 201.164886,151.870438 
	C203.766434,153.755066 206.090805,156.297470 207.807266,159.008408 
	C208.620316,160.292511 208.281662,162.959610 207.480591,164.482437 
	C205.517441,168.214294 196.427551,170.921524 191.178589,169.780914 
	C186.490860,168.762253 182.030838,164.326370 182.569565,158.978043 
	C183.077515,153.935226 185.757538,149.111221 187.768280,143.995346 
z"/>
<path fill="#FFB655" opacity="1.000000" stroke="none" 
	d="
M230.953735,157.976135 
	C229.279907,163.188660 223.299591,165.868774 219.035721,163.551437 
	C218.179276,163.085983 217.233810,161.804184 217.237381,160.902374 
	C217.254898,156.468094 220.429489,154.631470 224.098816,153.557236 
	C227.665497,152.513062 230.390152,153.308060 230.953735,157.976135 
z"/>
<path fill="#BB666E" opacity="1.000000" stroke="none" 
	d="
M242.071747,258.804199 
	C243.692902,263.442657 241.100220,265.268585 237.642349,265.620422 
	C233.044998,266.088287 228.349670,266.129517 223.739822,265.780731 
	C219.509171,265.460724 215.126724,255.569733 217.583328,252.112961 
	C218.312134,251.087418 220.032837,250.403244 221.376007,250.253601 
	C224.166107,249.942764 227.007690,250.093109 229.828140,250.055954 
	C238.987885,249.935272 238.987885,249.935623 242.071747,258.804199 
z"/>
<path fill="#BB666E" opacity="1.000000" stroke="none" 
	d="
M257.616089,262.786743 
	C254.444931,263.147400 251.561996,263.290039 250.865494,259.769928 
	C250.167023,256.239868 248.346985,251.348114 249.924393,249.367477 
	C251.740417,247.087280 258.000214,245.525482 260.051392,246.944794 
	C262.811218,248.854462 264.155365,253.803986 264.705231,257.649231 
	C265.322418,261.965302 260.908752,261.818085 257.616089,262.786743 
z"/>
</svg>